<?xml version="1.0" encoding="UTF-8" standalone="no"?>
<!DOCTYPE svg PUBLIC "-//W3C//DTD SVG 1.1//EN" "http://www.w3.org/Graphics/SVG/1.1/DTD/svg11.dtd">
<svg xmlns="http://www.w3.org/2000/svg" xmlns:xlink="http://www.w3.org/1999/xlink" version="1.1" width="250pt" height="89pt" viewBox="0 0 250 89">
<g enable-background="new">
<g>
<g id="Layer-1" data-name="Layer 1">
<clipPath id="cp0">
<path transform="matrix(1,0,0,-1,0,89)" d="M 0 89 L 250 89 L 250 0 L 0 0 Z "/>
</clipPath>
<g clip-path="url(#cp0)">
<g opacity=".600006">
<clipPath id="cp1">
<path transform="matrix(1,0,0,-1,0,89)" d="M 0 0 L 250 0 L 250 84.1913 L 0 84.1913 Z "/>
</clipPath>
<g clip-path="url(#cp1)">
<path transform="matrix(1,0,0,-1,189.5776,4.8086016)" d="M 0 0 C -15.932 0 -31.21 -7.43 -42.472 -20.653 L -59.062 -40.136 C -70.323 -53.359 -85.602 -60.789 -101.534 -60.789 L -189.578 -60.789 L -189.578 -84.191 L 60.422 -84.191 L 60.422 0 Z "/>
</g>
</g>
<path transform="matrix(1,0,0,-1,213.915,58.2334)" d="M 0 0 C -.003 2.391 -1.91 4.256 -4.202 4.296 C -6.648 4.338 -8.553 2.379 -8.571 .046 C -8.589 -2.337 -6.646 -4.326 -4.186 -4.272 C -1.906 -4.222 -.019 -2.377 0 0 M -3.929 -7.923 C -4.166 -7.923 -4.402 -7.925 -4.638 -7.922 C -4.722 -7.921 -4.776 -7.945 -4.83 -8.019 C -5.241 -8.588 -5.661 -9.149 -6.071 -9.72 C -6.138 -9.813 -6.204 -9.819 -6.302 -9.801 C -6.95 -9.677 -7.574 -9.476 -8.179 -9.22 C -8.747 -8.979 -9.292 -8.69 -9.798 -8.337 C -9.836 -8.311 -9.869 -8.238 -9.862 -8.193 C -9.799 -7.758 -9.724 -7.324 -9.656 -6.889 C -9.61 -6.593 -9.567 -6.295 -9.532 -5.997 C -9.527 -5.954 -9.567 -5.896 -9.602 -5.86 C -9.783 -5.676 -9.967 -5.494 -10.155 -5.316 C -10.186 -5.287 -10.241 -5.263 -10.281 -5.268 C -10.511 -5.299 -10.739 -5.341 -10.967 -5.377 C -11.183 -5.411 -11.398 -5.443 -11.614 -5.477 C -11.871 -5.517 -12.127 -5.554 -12.382 -5.6 C -12.495 -5.62 -12.571 -5.615 -12.635 -5.494 C -12.893 -5.007 -13.191 -4.54 -13.42 -4.04 C -13.617 -3.611 -13.744 -3.149 -13.892 -2.699 C -13.962 -2.485 -14.008 -2.263 -14.067 -2.045 C -14.095 -1.942 -14.078 -1.875 -13.981 -1.806 C -13.472 -1.444 -12.983 -1.055 -12.462 -.711 C -12.226 -.556 -12.151 -.389 -12.186 -.124 C -12.209 .047 -12.182 .223 -12.188 .396 C -12.189 .442 -12.214 .506 -12.25 .532 C -12.835 .965 -13.425 1.392 -14.01 1.826 C -14.048 1.854 -14.078 1.935 -14.068 1.981 C -13.952 2.583 -13.775 3.165 -13.545 3.734 C -13.293 4.356 -12.984 4.947 -12.615 5.509 C -12.566 5.582 -12.519 5.604 -12.437 5.591 C -12.132 5.54 -11.826 5.492 -11.521 5.445 C -11.099 5.381 -10.677 5.316 -10.254 5.257 C -10.222 5.252 -10.175 5.276 -10.149 5.302 C -9.955 5.491 -9.763 5.684 -9.573 5.878 C -9.548 5.904 -9.527 5.951 -9.531 5.985 C -9.567 6.27 -9.606 6.554 -9.65 6.836 C -9.715 7.254 -9.78 7.671 -9.855 8.087 C -9.881 8.227 -9.846 8.31 -9.724 8.387 C -9.008 8.836 -8.262 9.22 -7.456 9.476 C -7.076 9.596 -6.687 9.686 -6.304 9.792 C -6.205 9.819 -6.143 9.801 -6.077 9.709 C -5.658 9.125 -5.231 8.548 -4.804 7.972 C -4.781 7.94 -4.729 7.916 -4.691 7.915 C -4.408 7.91 -4.125 7.909 -3.842 7.913 C -3.806 7.914 -3.758 7.939 -3.736 7.97 C -3.413 8.405 -3.093 8.845 -2.773 9.282 C -2.658 9.439 -2.546 9.598 -2.425 9.751 C -2.401 9.782 -2.341 9.811 -2.305 9.804 C -2.076 9.753 -1.847 9.697 -1.621 9.633 C -1.356 9.559 -1.09 9.485 -.832 9.391 C -.19 9.155 .428 8.867 1.003 8.493 C 1.08 8.443 1.153 8.388 1.236 8.352 C 1.336 8.308 1.348 8.243 1.333 8.145 C 1.257 7.683 1.19 7.219 1.116 6.756 C 1.083 6.55 1.045 6.345 1.004 6.141 C .977 6.007 .988 5.907 1.109 5.808 C 1.279 5.667 1.424 5.495 1.577 5.335 C 1.637 5.272 1.689 5.241 1.789 5.262 C 2.033 5.312 2.283 5.333 2.53 5.372 C 2.866 5.425 3.201 5.484 3.537 5.539 C 3.667 5.561 3.798 5.583 3.929 5.589 C 3.976 5.59 4.043 5.556 4.07 5.516 C 4.455 4.949 4.779 4.347 5.019 3.705 C 5.2 3.219 5.338 2.715 5.492 2.219 C 5.515 2.146 5.519 2.066 5.536 1.99 C 5.554 1.909 5.527 1.858 5.458 1.808 C 4.883 1.39 4.31 .97 3.741 .545 C 3.695 .511 3.655 .437 3.652 .381 C 3.643 .131 3.65 -.12 3.648 -.37 C 3.647 -.459 3.674 -.52 3.751 -.575 C 4.313 -.979 4.871 -1.389 5.431 -1.795 C 5.515 -1.855 5.558 -1.919 5.534 -2.033 C 5.332 -2.978 5.009 -3.877 4.553 -4.728 C 4.408 -4.998 4.239 -5.255 4.084 -5.521 C 4.032 -5.609 3.967 -5.624 3.869 -5.604 C 3.638 -5.558 3.404 -5.522 3.172 -5.484 C 2.723 -5.412 2.274 -5.342 1.826 -5.269 C 1.732 -5.253 1.656 -5.261 1.583 -5.341 C 1.415 -5.523 1.239 -5.7 1.058 -5.869 C .989 -5.933 .979 -5.996 .992 -6.075 C 1.065 -6.551 1.138 -7.027 1.215 -7.503 C 1.251 -7.727 1.296 -7.948 1.336 -8.172 C 1.349 -8.242 1.339 -8.294 1.267 -8.342 C .627 -8.766 -.046 -9.124 -.772 -9.371 C -1.252 -9.534 -1.744 -9.659 -2.23 -9.805 C -2.343 -9.838 -2.415 -9.802 -2.482 -9.708 C -2.882 -9.149 -3.286 -8.593 -3.695 -8.04 C -3.744 -7.974 -3.834 -7.937 -3.905 -7.886 C -3.913 -7.898 -3.921 -7.91 -3.929 -7.923 " fill="#ffffff"/>
<path transform="matrix(1,0,0,-1,200.7021,64.957)" d="M 0 0 C -.128 -.022 -.215 -.018 -.288 .12 C -.58 .673 -1.178 1.574 -1.438 2.142 C -1.661 2.628 -1.805 3.151 -1.973 3.662 C -2.052 3.905 -2.179 4.528 -2.246 4.776 C -2.277 4.892 -2.184 4.968 -2.074 5.047 C -1.497 5.457 -.941 5.899 -.351 6.289 C -.083 6.466 -.036 6.652 -.038 6.955 C -.039 7.153 -.033 6.605 -.04 6.802 C -.041 6.855 -.069 6.927 -.11 6.957 C -.774 7.448 -1.443 7.933 -2.107 8.425 C -2.15 8.457 -2.184 8.548 -2.173 8.602 C -2.151 8.716 -2.116 9.197 -2.09 9.311 C -4.31 10.874 -6.956 11.718 -10.069 11.717 C -15.688 11.715 -19.792 8.975 -22.589 4.172 C -27.082 7.707 -30.852 14.955 -29.138 23.093 C -27.278 31.926 -19.702 38.056 -11.271 38.538 C -1.89 39.075 5.896 33.139 8.508 24.992 C 9.519 21.837 9.665 18.664 9.145 15.702 C 9.24 15.703 9.111 15.7 9.205 15.702 C 9.247 15.702 9.301 15.731 9.326 15.766 C 9.692 16.26 10.055 16.758 10.418 17.255 C 10.549 17.433 10.676 17.613 10.813 17.786 C 10.84 17.821 10.909 17.854 10.949 17.846 C 11.042 17.825 11.356 17.799 11.448 17.777 C 11.474 18.199 11.49 18.623 11.49 19.052 C 11.499 30.957 1.846 40.604 -10.094 40.625 C -21.934 40.646 -31.586 30.982 -31.611 19.087 C -31.635 7.185 -21.976 -2.488 -10.049 -2.507 C -6 -2.513 .289 .053 0 0 " fill="#ffffff"/>
<path transform="matrix(1,0,0,-1,190.6978,35.3623)" d="M 0 0 C -4.516 .021 -8.205 -3.616 -8.226 -8.113 C -8.249 -12.656 -4.606 -16.335 -.065 -16.357 C 4.395 -16.38 8.088 -12.721 8.117 -8.253 C 8.146 -3.717 4.511 -.021 0 0 " fill="#ffffff"/>
</g>
</g>
</g>
</g>
</svg>
