<?xml version="1.0" encoding="UTF-8"?>
<svg xmlns="http://www.w3.org/2000/svg" xmlns:xlink="http://www.w3.org/1999/xlink" width="1000pt" height="1000pt" viewBox="0 0 1000 1000" version="1.1">
<g id="surface1">
<path style=" stroke:none;fill-rule:nonzero;fill:rgb(100%,100%,100%);fill-opacity:1;" d="M 500.09375 805.910156 C 554.824219 805.910156 609.554688 805.929688 664.28125 805.902344 C 722.605469 805.878906 780.929688 805.898438 839.25 805.699219 C 854.53125 805.648438 867.90625 799.835938 879.183594 789.71875 C 893.910156 776.507813 900.082031 759.65625 900.03125 739.960938 C 899.855469 668.417969 899.960938 596.875 899.964844 525.332031 C 899.96875 477.5625 899.941406 429.796875 900.003906 382.027344 C 900.027344 362.53125 893.148438 346.179688 878.527344 333.125 C 865.527344 321.515625 850 317.457031 833.015625 317.472656 C 793.484375 317.503906 753.953125 317.4375 714.421875 317.59375 C 710.597656 317.609375 708.675781 316.410156 707.246094 312.902344 C 704.15625 305.3125 700.640625 297.890625 697.269531 290.417969 C 685.875 265.183594 674.160156 240.089844 663.1875 214.675781 C 656.996094 200.335938 646.679688 194.109375 631.371094 194.222656 C 599.355469 194.457031 567.339844 194.269531 535.320313 194.265625 C 479.34375 194.261719 423.363281 194.257813 367.386719 194.257813 C 353.285156 194.257813 343.445313 200.265625 337.578125 213.566406 C 323.160156 246.246094 308.105469 278.644531 293.652344 311.308594 C 291.480469 316.21875 288.921875 317.644531 283.730469 317.613281 C 244.90625 317.382813 206.085938 317.472656 167.261719 317.5 C 154.203125 317.511719 141.5625 319.511719 130.347656 326.726563 C 109.886719 339.882813 100.128906 358.746094 100.148438 383.066406 C 100.238281 501.117188 100.1875 619.164063 100.207031 737.214844 C 100.207031 740.613281 100.375 744.011719 100.535156 747.402344 C 101.386719 765.242188 109.261719 779.644531 122.605469 791.0625 C 135.574219 802.160156 150.941406 806.015625 167.867188 805.988281 C 278.609375 805.816406 389.351563 805.898438 500.09375 805.910156 M 149.382813 283.222656 C 151.726563 276.503906 153.003906 270.324219 155.921875 265.058594 C 160.394531 256.988281 168.367188 254.214844 177.300781 254.136719 C 185.347656 254.070313 193.410156 254.40625 201.445313 254.070313 C 215.035156 253.496094 228.769531 264.164063 228.199219 279.367188 C 228.164063 280.226563 228.445313 281.101563 228.660156 282.519531 C 241.199219 282.519531 253.675781 282.613281 266.144531 282.367188 C 267.308594 282.347656 268.867188 280.382813 269.5 278.984375 C 281.3125 252.96875 293.191406 226.980469 304.671875 200.816406 C 314.4375 178.566406 330.589844 164.445313 354.6875 160.015625 C 358.695313 159.277344 362.863281 159.171875 366.960938 159.171875 C 455.496094 159.121094 544.035156 159.097656 632.574219 159.144531 C 661.363281 159.160156 682.160156 172.230469 694.246094 198.351563 C 706.550781 224.933594 718.40625 251.71875 730.289063 278.488281 C 731.664063 281.582031 733.296875 282.667969 736.65625 282.652344 C 770.289063 282.523438 803.921875 282.535156 837.554688 282.558594 C 877.953125 282.585938 914.027344 307.496094 928.496094 345.171875 C 932.910156 356.660156 935.148438 368.476563 935.128906 380.785156 C 935.019531 448.929688 934.914063 517.074219 934.90625 585.21875 C 934.902344 637.097656 934.988281 688.972656 935.132813 740.847656 C 935.226563 774.238281 921.984375 801.242188 895.738281 821.507813 C 879.324219 834.179688 860.269531 840.691406 839.394531 840.722656 C 761.246094 840.847656 683.101563 840.828125 604.949219 840.835938 C 540.554688 840.839844 476.160156 840.796875 411.765625 840.789063 C 343.976563 840.78125 276.1875 840.84375 208.398438 840.761719 C 189.460938 840.738281 170.441406 841.394531 151.609375 839.863281 C 108.878906 836.382813 72.121094 800.679688 66.34375 758.296875 C 65.574219 752.648438 65.113281 746.910156 65.105469 741.214844 C 65.023438 663.941406 65.03125 586.667969 65.054688 509.394531 C 65.070313 464.859375 64.4375 420.304688 65.414063 375.789063 C 66.414063 330.335938 101.421875 291.421875 146.203125 283.855469 C 147.773438 283.59375 149.328125 283.230469 149.382813 283.222656 "/>
<path style=" stroke:none;fill-rule:nonzero;fill:rgb(100%,100%,100%);fill-opacity:1;" d="M 500.046875 392.007813 C 410.21875 391.472656 333.820313 465.078125 333.839844 558.550781 C 333.855469 650.578125 408.964844 724.480469 502.039063 724.3125 C 591.902344 724.144531 666.515625 648.574219 666.371094 557.867188 C 666.226563 466.378906 591.46875 391.832031 500.046875 392.007813 M 701.648438 558.394531 C 700.6875 669.796875 611.28125 760.007813 497.8125 759.453125 C 388.65625 758.914063 297.988281 667.660156 298.621094 557.574219 C 299.265625 445.671875 390.328125 354.730469 504.261719 356.910156 C 612.050781 358.976563 700.859375 446.347656 701.648438 558.394531 "/>
<path style=" stroke:none;fill-rule:nonzero;fill:rgb(100%,100%,100%);fill-opacity:1;" d="M 785.691406 431.359375 C 779.109375 431.359375 772.402344 432.183594 765.972656 431.199219 C 749.785156 428.722656 738.722656 415.421875 738.566406 399.109375 C 738.515625 393.59375 738.417969 387.972656 739.332031 382.566406 C 741.632813 368.96875 752.804688 357.902344 766.535156 356.894531 C 779.492188 355.949219 792.636719 355.835938 805.578125 356.859375 C 822.167969 358.175781 833.957031 372.226563 833.894531 388.996094 C 833.871094 395.035156 834.113281 401.261719 832.789063 407.074219 C 829.445313 421.757813 816.871094 431.488281 801.78125 431.921875 C 796.421875 432.074219 791.058594 431.945313 785.695313 431.945313 C 785.695313 431.75 785.691406 431.554688 785.691406 431.359375 "/>
<path style=" stroke:none;fill-rule:nonzero;fill:rgb(100%,100%,100%);fill-opacity:1;" d="M 500.382813 684.679688 C 569.570313 684.730469 626.539063 627.949219 626.804688 559.054688 C 627.078125 488.929688 570.171875 431.363281 499.585938 431.457031 C 430.816406 431.550781 373.476563 488.441406 373.421875 557.421875 C 373.363281 628.007813 429.851563 684.628906 500.382813 684.679688 M 647.699219 558.234375 C 648.472656 638.785156 581.53125 707.203125 497.492188 705.867188 C 417.445313 704.589844 351.949219 638.339844 352.320313 557.390625 C 352.691406 476.742188 418.691406 410.136719 499.984375 410.351563 C 582.308594 410.566406 647.847656 476.222656 647.699219 558.234375 "/>
</g>
</svg>
