<?xml version="1.0" encoding="UTF-8"?>
<svg xmlns="http://www.w3.org/2000/svg" xmlns:xlink="http://www.w3.org/1999/xlink" width="1000pt" height="1000pt" viewBox="0 0 1000 1000" version="1.1">
<g id="surface1">
<path style=" stroke:none;fill-rule:nonzero;fill:rgb(82.03125%,83.59375%,85.546875%);fill-opacity:1;" d="M 947.566406 603.417969 C 947.566406 497.546875 867.984375 410.398438 765.398438 398.1875 C 736.15625 278.609375 628.589844 189.753906 500 189.753906 C 371.414063 189.753906 263.847656 278.609375 234.605469 398.1875 C 132.023438 410.398438 52.429688 497.546875 52.429688 603.417969 C 52.429688 717.167969 144.28125 809.40625 257.851563 810.175781 L 257.851563 810.246094 L 742.433594 810.246094 L 742.433594 810.160156 C 855.871094 809.238281 947.566406 717.070313 947.566406 603.417969 "/>
<path style=" stroke:none;fill-rule:nonzero;fill:rgb(88.671875%,88.671875%,88.671875%);fill-opacity:1;" d="M 934.484375 610.675781 C 934.484375 508.523438 857.226563 424.4375 757.640625 412.652344 C 729.25 297.273438 624.832031 211.535156 500 211.535156 C 375.171875 211.535156 270.753906 297.273438 242.363281 412.652344 C 142.78125 424.4375 65.515625 508.523438 65.515625 610.675781 C 65.515625 720.4375 154.679688 809.4375 264.929688 810.175781 L 264.929688 810.246094 L 735.34375 810.246094 L 735.34375 810.164063 C 845.46875 809.273438 934.484375 720.34375 934.484375 610.675781 "/>
<path style=" stroke:none;fill-rule:nonzero;fill:rgb(100%,100%,100%);fill-opacity:1;" d="M 520.683594 496.417969 L 520.683594 506.296875 C 520.6875 565.269531 520.71875 624.238281 520.664063 683.203125 C 520.652344 699.101563 507.949219 709.171875 493.867188 704.675781 C 485.394531 701.96875 479.871094 694.65625 479.738281 685.273438 C 479.554688 672.398438 479.675781 659.519531 479.675781 646.640625 C 479.675781 599.644531 479.679688 552.652344 479.6875 505.65625 L 479.6875 496.757813 C 477.148438 499.183594 475.566406 500.546875 474.152344 502.066406 C 453.363281 524.382813 432.558594 546.679688 411.855469 569.074219 C 406.03125 575.367188 399.171875 578.542969 390.652344 576.660156 C 374.695313 573.140625 369.050781 554.492188 380.410156 542.128906 C 402.71875 517.835938 425.304688 493.796875 447.78125 469.65625 C 459.328125 457.253906 470.875 444.855469 482.441406 432.476563 C 494.007813 420.09375 505.804688 419.9375 517.253906 432.199219 C 551.164063 468.53125 585.035156 504.90625 618.875 541.304688 C 627.738281 550.839844 627.753906 563.242188 619.113281 571.511719 C 610.515625 579.742188 597.9375 579.058594 589.027344 569.550781 C 568.175781 547.296875 547.460938 524.910156 526.679688 502.589844 C 525.160156 500.957031 523.574219 499.386719 520.683594 496.417969 "/>
</g>
</svg>
