<svg width="30" height="30" viewBox="0 0 30 30" fill="none" xmlns="http://www.w3.org/2000/svg">
<path d="M7.73438 23.4375C7.0392 23.4376 6.3527 23.2832 5.7246 22.9852C5.0965 22.6873 4.54252 22.2534 4.1028 21.715C3.66308 21.1766 3.34862 20.5471 3.18221 19.8721C3.0158 19.1972 3.00159 18.4936 3.14063 17.8125C3.38202 16.735 3.98751 15.7737 4.85504 15.0906C5.72258 14.4075 6.79909 14.0444 7.90313 14.0625H9.375V23.4375H7.73438Z" stroke="white" stroke-width="2" stroke-linecap="round" stroke-linejoin="round"/>
<path d="M22.2656 23.4375C22.9608 23.4376 23.6473 23.2832 24.2754 22.9852C24.9035 22.6873 25.4575 22.2534 25.8972 21.715C26.3369 21.1766 26.6514 20.5471 26.8178 19.8721C26.9842 19.1972 26.9984 18.4936 26.8594 17.8125C26.618 16.735 26.0125 15.7737 25.145 15.0906C24.2774 14.4075 23.2009 14.0444 22.0969 14.0625H20.625V23.4375H22.2656Z" stroke="white" stroke-width="2" stroke-linecap="round" stroke-linejoin="round"/>
<path d="M6.56249 14.0625V12.9562C6.52871 11.0245 7.15094 9.13829 8.32755 7.60579C9.50417 6.0733 11.1656 4.98504 13.0406 4.51875C14.2832 4.22207 15.577 4.21143 16.8243 4.48764C18.0716 4.76384 19.2399 5.31967 20.2411 6.11321C21.2422 6.90675 22.0502 7.91728 22.6039 9.06857C23.1576 10.2199 23.4426 11.4819 23.4375 12.7594V14.0625" stroke="white" stroke-width="2" stroke-linecap="round" stroke-linejoin="round"/>
<path d="M9.375 23.4375C9.375 24.1834 9.67132 24.8988 10.1988 25.4262C10.7262 25.9537 11.4416 26.25 12.1875 26.25" stroke="white" stroke-width="2" stroke-linecap="round" stroke-linejoin="round"/>
<path d="M15 27.1875C15.5178 27.1875 15.9375 26.7678 15.9375 26.25C15.9375 25.7322 15.5178 25.3125 15 25.3125C14.4822 25.3125 14.0625 25.7322 14.0625 26.25C14.0625 26.7678 14.4822 27.1875 15 27.1875Z" fill="white"/>
<path d="M7.03125 14.5312V22.9688" stroke="white" stroke-linecap="round" stroke-linejoin="round"/>
</svg>
