<svg width="24" height="25" viewBox="0 0 24 25" fill="none" xmlns="http://www.w3.org/2000/svg">
<path d="M22 24.138H2C0.897 24.138 0 23.2384 0 22.1322V7.08898C0 5.9828 0.897 5.08322 2 5.08322H12C12.1326 5.08322 12.2598 5.13605 12.3536 5.23009C12.4473 5.32412 12.5 5.45167 12.5 5.58466C12.5 5.71765 12.4473 5.84519 12.3536 5.93923C12.2598 6.03327 12.1326 6.0861 12 6.0861H2C1.4485 6.0861 1 6.53589 1 7.08898V22.1322C1 22.6853 1.4485 23.1351 2 23.1351H22C22.5515 23.1351 23 22.6853 23 22.1322V7.08898C23 6.53589 22.5515 6.0861 22 6.0861C21.8674 6.0861 21.7402 6.03327 21.6464 5.93923C21.5527 5.84519 21.5 5.71765 21.5 5.58466C21.5 5.45167 21.5527 5.32412 21.6464 5.23009C21.7402 5.13605 21.8674 5.08322 22 5.08322C23.103 5.08322 24 5.9828 24 7.08898V22.1322C24 23.2384 23.103 24.138 22 24.138Z" fill="white"/>
<path d="M22 22.1322H5V7.08898H10C10.1326 7.08898 10.2598 7.14181 10.3536 7.23585C10.4473 7.32989 10.5 7.45744 10.5 7.59043C10.5 7.72342 10.4473 7.85096 10.3536 7.945C10.2598 8.03904 10.1326 8.09187 10 8.09187H6V21.1294H21V8.09187H20C19.8674 8.09187 19.7402 8.03904 19.6464 7.945C19.5527 7.85096 19.5 7.72342 19.5 7.59043C19.5 7.45744 19.5527 7.32989 19.6464 7.23585C19.7402 7.14181 19.8674 7.08898 20 7.08898H22V22.1322Z" fill="white"/>
<path d="M4 21.1294H0V8.09187H4V21.1294ZM1 20.1265H3V9.09475H1V20.1265Z" fill="white"/>
<path d="M8.72 13.8885L10.0395 9.72807L19.0355 0.706634C19.791 -0.0515454 21.1085 -0.0515454 21.864 0.706634C22.2386 1.08297 22.449 1.59298 22.449 2.12471C22.449 2.65645 22.2386 3.16646 21.864 3.54279L12.8685 12.5647L8.72 13.8885V13.8885ZM10.919 10.2646L10.259 12.3446L12.333 11.6827L21.157 2.83425C21.547 2.44313 21.547 1.8073 21.157 1.41617C20.779 1.03708 20.1205 1.03708 19.7425 1.41617L10.919 10.2646Z" fill="white"/>
<path d="M0.5 12.1034H3.5V13.1063H0.5V12.1034Z" fill="white"/>
<path d="M0.5 16.1149H3.5V17.1178H0.5V16.1149Z" fill="white"/>
<path d="M20.803 4.39925C20.7373 4.39932 20.6723 4.38637 20.6116 4.36116C20.551 4.33595 20.4959 4.29896 20.4495 4.25233L18.328 2.12471C18.2816 2.07815 18.2448 2.02288 18.2196 1.96206C18.1945 1.90123 18.1816 1.83603 18.1816 1.77019C18.1816 1.70435 18.1945 1.63916 18.2196 1.57833C18.2448 1.5175 18.2816 1.46223 18.328 1.41567C18.3744 1.36912 18.4295 1.33219 18.4902 1.30699C18.5508 1.28179 18.6158 1.26883 18.6815 1.26883C18.7472 1.26883 18.8122 1.28179 18.8728 1.30699C18.9335 1.33219 18.9886 1.36912 19.035 1.41567L21.1565 3.54329C21.2266 3.61332 21.2745 3.70268 21.2939 3.80002C21.3133 3.89736 21.3035 3.99829 21.2656 4.09C21.2277 4.18171 21.1635 4.26007 21.0812 4.31513C20.9988 4.37019 20.902 4.39947 20.803 4.39925V4.39925Z" fill="white"/>
<path d="M17.975 7.23591C17.9093 7.23597 17.8443 7.22303 17.7836 7.19782C17.723 7.1726 17.6679 7.13562 17.6215 7.08898L15.5 4.96137C15.4536 4.91481 15.4168 4.85954 15.3916 4.79871C15.3665 4.73788 15.3536 4.67269 15.3536 4.60685C15.3536 4.54101 15.3665 4.47581 15.3916 4.41498C15.4168 4.35415 15.4536 4.29888 15.5 4.25233C15.5464 4.20577 15.6015 4.16884 15.6622 4.14365C15.7228 4.11845 15.7879 4.10548 15.8535 4.10548C15.9192 4.10548 15.9842 4.11845 16.0448 4.14365C16.1055 4.16884 16.1606 4.20577 16.207 4.25233L18.3285 6.37995C18.3987 6.44998 18.4465 6.53934 18.4659 6.63667C18.4853 6.73401 18.4755 6.83494 18.4376 6.92665C18.3997 7.01837 18.3355 7.09673 18.2532 7.15179C18.1708 7.20685 18.074 7.23613 17.975 7.23591V7.23591Z" fill="white"/>
<path d="M12.601 12.6254C12.5353 12.6255 12.4703 12.6125 12.4096 12.5873C12.349 12.5621 12.2939 12.5251 12.2475 12.4785L10.126 10.3509C10.0322 10.2568 9.97958 10.1293 9.97958 9.99634C9.97958 9.86337 10.0322 9.73585 10.126 9.64182C10.2198 9.5478 10.3469 9.49498 10.4795 9.49498C10.6121 9.49498 10.7392 9.5478 10.833 9.64182L12.9545 11.7694C13.0247 11.8395 13.0725 11.9288 13.0919 12.0262C13.1113 12.1235 13.1015 12.2244 13.0636 12.3161C13.0257 12.4079 12.9615 12.4862 12.8792 12.5413C12.7968 12.5963 12.7 12.6256 12.601 12.6254V12.6254Z" fill="white"/>
<path d="M8.5 14.6106C8.40102 14.6108 8.3042 14.5815 8.22184 14.5265C8.13948 14.4714 8.07529 14.3931 8.03741 14.3014C7.99954 14.2096 7.98969 14.1087 8.00911 14.0114C8.02853 13.914 8.07635 13.8247 8.1465 13.7546L9.136 12.7623C9.22975 12.6683 9.35691 12.6154 9.4895 12.6154C9.62209 12.6154 9.74925 12.6683 9.843 12.7623C9.93676 12.8563 9.98943 12.9838 9.98943 13.1168C9.98943 13.2498 9.93676 13.3773 9.843 13.4713L8.8535 14.4637C8.80713 14.5103 8.75203 14.5473 8.69137 14.5725C8.6307 14.5977 8.56567 14.6107 8.5 14.6106V14.6106Z" fill="white"/>
</svg>
