<svg width="30" height="30" viewBox="0 0 30 30" fill="none" xmlns="http://www.w3.org/2000/svg">
<path d="M10.3737 13.54H11.5105V20.1H10.3737V13.54ZM30 15C30 18.9782 28.7524 22.7936 26.5315 25.6066C24.3107 28.4196 21.2986 30 18.1579 30H0.789474C0.580092 30 0.379287 29.8946 0.231232 29.7071C0.0831766 29.5196 0 29.2652 0 29V15C0 11.0218 1.24765 7.20644 3.46847 4.3934C5.6893 1.58035 8.70138 0 11.8421 0H18.1579C21.2986 0 24.3107 1.58035 26.5315 4.3934C28.7524 7.20644 30 11.0218 30 15ZM21.1263 13.2C20.9975 12.7106 20.7491 12.2859 20.4169 11.9874C20.0847 11.6889 19.6862 11.5322 19.2789 11.54H17.5421C17.5927 11.0757 17.6244 10.6084 17.6368 10.14C17.6339 9.54359 17.4445 8.97296 17.1101 8.55311C16.7757 8.13325 16.3235 7.8984 15.8526 7.9C15.5261 7.8977 15.2085 8.0345 14.9508 8.28841C14.693 8.54231 14.5102 8.89859 14.4316 9.3C14.341 9.84838 14.1625 10.3674 13.9072 10.8249C13.6519 11.2824 13.3252 11.6688 12.9474 11.96H12.9316C12.8608 11.8307 12.7664 11.725 12.6565 11.6518C12.5465 11.5787 12.4242 11.5403 12.3 11.54H9.58421C9.37483 11.54 9.17402 11.6454 9.02597 11.8329C8.87791 12.0204 8.79474 12.2748 8.79474 12.54V21.1C8.79474 21.3652 8.87791 21.6196 9.02597 21.8071C9.17402 21.9946 9.37483 22.1 9.58421 22.1H12.3C12.49 22.1027 12.674 22.0164 12.8168 21.8576C12.9596 21.6989 13.0511 21.4789 13.0737 21.24H17.7632C18.2189 21.2431 18.6632 21.0599 19.0302 20.7176C19.3972 20.3753 19.6671 19.8922 19.8 19.34L20.7632 15.42C20.9611 15.1149 21.0976 14.7534 21.1609 14.3667C21.2241 13.98 21.2123 13.5796 21.1263 13.2ZM19.2789 13.54H16.5158C16.3864 13.5364 16.2597 13.4926 16.1468 13.4124C16.0339 13.3322 15.9383 13.218 15.8684 13.08C15.7972 12.9426 15.7529 12.7856 15.7392 12.6221C15.7254 12.4586 15.7427 12.2933 15.7895 12.14C15.9767 11.5004 16.0677 10.822 16.0579 10.14C16.0571 10.1071 16.0511 10.0747 16.0403 10.0447C16.0295 10.0148 16.0141 9.98782 15.995 9.96547C15.9759 9.94313 15.9535 9.92583 15.929 9.91459C15.9046 9.90335 15.8786 9.89839 15.8526 9.9C15.7107 10.8393 15.3827 11.7174 14.8993 12.4521C14.416 13.1867 13.7932 13.7538 13.0895 14.1V19.24H17.7632C17.8826 19.2379 17.9986 19.1886 18.0948 19.099C18.1911 19.0093 18.2628 18.8838 18.3 18.74L19.2947 14.62C19.2947 14.6 19.3105 14.6 19.3105 14.58C19.3279 14.4879 19.3663 14.4044 19.4211 14.34C19.4586 14.2752 19.5009 14.2149 19.5474 14.16C19.5847 14.1103 19.6103 14.0484 19.6215 13.9813C19.6326 13.9142 19.6288 13.8445 19.6105 13.78C19.5813 13.7018 19.5339 13.6368 19.4746 13.5938C19.4153 13.5509 19.347 13.5321 19.2789 13.54Z" fill="white"/>
</svg>
