<?xml version="1.0" encoding="UTF-8"?>
<svg xmlns="http://www.w3.org/2000/svg" xmlns:xlink="http://www.w3.org/1999/xlink" width="1000pt" height="1000pt" viewBox="0 0 1000 1000" version="1.1">
<g id="surface1">
<path style=" stroke:none;fill-rule:nonzero;fill:rgb(100%,100%,100%);fill-opacity:1;" d="M 620.78125 759.890625 C 619.367188 757.433594 618.449219 755.726563 617.425781 754.085938 C 598.601563 723.929688 579.816406 693.75 560.851563 663.679688 C 558.898438 660.582031 558.902344 658.511719 560.871094 655.394531 C 580.625 624.097656 600.144531 592.65625 619.816406 561.308594 C 632.453125 541.164063 659.960938 541.273438 672.683594 561.46875 C 680.691406 574.175781 688.59375 586.949219 696.550781 599.6875 C 728.976563 651.578125 761.441406 703.449219 793.765625 755.402344 C 795.847656 758.75 798.027344 760.109375 802.039063 760.066406 C 822.757813 759.839844 843.480469 759.941406 864.199219 759.902344 C 865.773438 759.898438 867.347656 759.683594 868.925781 759.566406 L 868.925781 240.203125 L 131.191406 240.203125 L 131.191406 759.949219 C 136.761719 759.949219 141.898438 759.660156 146.984375 760.035156 C 151.207031 760.351563 153.480469 758.742188 155.695313 755.183594 C 184.324219 709.113281 213.140625 663.164063 241.886719 617.164063 C 277.03125 560.914063 312.121094 504.625 347.300781 448.394531 C 362.355469 424.332031 395.746094 423.894531 410.863281 447.632813 C 423.167969 466.945313 435.113281 486.484375 447.25 505.902344 C 478.910156 556.546875 510.59375 607.175781 542.257813 657.8125 C 562.65625 690.433594 583.023438 723.070313 603.496094 755.644531 C 604.5625 757.335938 606.34375 759.433594 608.046875 759.699219 C 611.914063 760.308594 615.945313 759.890625 620.78125 759.890625 M 499.875 812.9375 C 392.414063 812.9375 284.953125 812.933594 177.492188 812.9375 C 162.640625 812.941406 147.789063 812.914063 132.9375 813.027344 C 100.304688 813.265625 77.734375 791.074219 77.734375 758.488281 C 77.730469 585.925781 77.75 413.363281 77.78125 240.804688 C 77.785156 209.324219 100.476563 186.789063 131.863281 186.800781 C 241.890625 186.832031 351.917969 186.800781 461.945313 186.808594 C 569.589844 186.816406 677.234375 186.851563 784.878906 186.863281 C 813.300781 186.867188 841.726563 186.628906 870.144531 186.867188 C 895.84375 187.085938 916.046875 203.929688 921.351563 229.082031 C 921.953125 231.925781 922.167969 234.898438 922.171875 237.8125 C 922.222656 342.15625 922.226563 446.5 922.234375 550.84375 C 922.242188 620.710938 922.308594 690.578125 922.222656 760.445313 C 922.191406 787.460938 903.464844 809.179688 876.6875 812.527344 C 866.75 813.773438 856.546875 813 846.464844 813.003906 C 730.933594 813.023438 615.40625 813.015625 499.875 813.015625 "/>
<path style=" stroke:none;fill-rule:nonzero;fill:rgb(100%,100%,100%);fill-opacity:1;" d="M 706.652344 281.214844 C 750.867188 281.269531 784.550781 315.949219 784.496094 361.363281 C 784.449219 402.96875 748.328125 438.050781 705.882813 437.714844 C 662.472656 437.371094 627.945313 402.433594 628.007813 358.914063 C 628.074219 315.5625 662.890625 281.160156 706.652344 281.214844 "/>
</g>
</svg>
