<?xml version="1.0" encoding="UTF-8" standalone="no"?>
<!DOCTYPE svg PUBLIC "-//W3C//DTD SVG 1.1//EN" "http://www.w3.org/Graphics/SVG/1.1/DTD/svg11.dtd">
<svg xmlns="http://www.w3.org/2000/svg" xmlns:xlink="http://www.w3.org/1999/xlink" version="1.1" width="250pt" height="89pt" viewBox="0 0 250 89">
<g enable-background="new">
<g>
<g id="Layer-1" data-name="Layer 1">
<clipPath id="cp0">
<path transform="matrix(1,0,0,-1,0,89)" d="M 0 89 L 250 89 L 250 0 L 0 0 Z "/>
</clipPath>
<g clip-path="url(#cp0)">
<g opacity=".600006">
<clipPath id="cp1">
<path transform="matrix(1,0,0,-1,0,89)" d="M 0 0 L 250 0 L 250 85.6181 L 0 85.6181 Z "/>
</clipPath>
<g clip-path="url(#cp1)">
<path transform="matrix(1,0,0,-1,162.7588,65.5977)" d="M 0 0 C -15.932 0 -31.21 7.43 -42.472 20.653 L -60.277 41.563 C -71.538 54.786 -86.817 62.216 -102.749 62.216 L -162.759 62.216 L -162.759 -23.402 L 87.241 -23.402 L 87.241 0 Z "/>
</g>
</g>
<path transform="matrix(1,0,0,-1,55.3979,32.6094)" d="M 0 0 L -12.865 -12.352 C -13.595 -13.053 -14.008 -14.021 -14.008 -15.033 L -14.008 -34.636 L -3.423 -34.636 L -3.423 -23.51 C -3.423 -22.668 -2.741 -21.986 -1.9 -21.986 L 3.926 -21.986 C 4.767 -21.986 5.449 -22.668 5.449 -23.51 L 5.449 -34.64 L 16.428 -34.64 L 16.428 -15.074 C 16.428 -14.054 16.009 -13.078 15.268 -12.376 L 2.201 .007 C 1.583 .593 .614 .59 0 0 " fill="#ffffff"/>
<path transform="matrix(1,0,0,-1,35.1333,46.8174)" d="M 0 0 L 0 0 C .501 -.494 1.306 -.501 1.815 -.015 L 20.434 17.768 C 20.938 18.248 21.731 18.248 22.234 17.767 L 40.802 .02 C 41.321 -.477 42.145 -.459 42.643 .06 L 42.683 .102 C 43.183 .623 43.164 1.451 42.64 1.949 L 22.249 21.326 C 21.746 21.805 20.956 21.804 20.453 21.325 L .017 1.872 C -.517 1.365 -.524 .517 0 0 " fill="#ffffff"/>
</g>
</g>
</g>
</g>
</svg>
