<?xml version="1.0" encoding="UTF-8"?>
<svg xmlns="http://www.w3.org/2000/svg" xmlns:xlink="http://www.w3.org/1999/xlink" width="1000pt" height="1000pt" viewBox="0 0 1000 1000" version="1.1">
<g id="surface1">
<path style=" stroke:none;fill-rule:nonzero;fill:rgb(0%,0%,0%);fill-opacity:1;" d="M 758.898438 715.375 L 241.257813 715.375 L 241.257813 861.507813 L 758.898438 861.507813 Z M 240.984375 381.304688 L 758.796875 381.304688 L 758.796875 308.070313 L 751.226563 308.070313 C 709.445313 308.070313 667.671875 308.078125 625.890625 308.066406 C 609.660156 308.0625 602.953125 301.386719 602.949219 285.246094 C 602.941406 235.964844 602.945313 186.679688 602.945313 137.394531 L 602.945313 130.242188 L 240.984375 130.242188 Z M 202.996094 381.820313 L 202.996094 373.664063 C 202.996094 292.53125 202.992188 211.398438 203 130.265625 C 203.003906 105.785156 216.964844 91.761719 241.488281 91.753906 C 367.03125 91.730469 492.578125 91.769531 618.121094 91.671875 C 626.421875 91.667969 632.824219 94.398438 638.339844 100.722656 C 688.996094 158.796875 739.773438 216.773438 790.625 274.679688 C 795.21875 279.910156 797.046875 285.667969 797.023438 292.453125 C 796.925781 319.835938 796.984375 347.21875 796.984375 374.601563 L 796.984375 381.824219 C 802.671875 381.824219 807.6875 381.792969 812.703125 381.832031 C 840.820313 382.050781 861.722656 402.605469 861.765625 430.574219 C 861.878906 509.070313 861.886719 587.566406 861.765625 666.0625 C 861.726563 693.527344 841.328125 714.085938 813.894531 714.800781 C 808.472656 714.941406 803.039063 714.820313 796.984375 714.820313 L 796.984375 722.734375 C 796.984375 772.023438 796.996094 821.308594 796.980469 870.597656 C 796.972656 894.226563 782.8125 908.316406 759.039063 908.320313 C 586.441406 908.332031 413.84375 908.328125 241.242188 908.320313 C 217.0625 908.316406 203.007813 894.324219 203.003906 870.28125 C 202.988281 821.195313 202.996094 772.109375 202.996094 723.023438 L 202.996094 714.804688 C 197.839844 714.804688 193.050781 714.839844 188.261719 714.800781 C 158.675781 714.566406 138.214844 694.140625 138.191406 664.53125 C 138.128906 587.050781 138.136719 509.566406 138.191406 432.085938 C 138.214844 402.402344 158.660156 381.957031 188.214844 381.824219 C 192.84375 381.804688 197.472656 381.820313 202.996094 381.820313 "/>
<path style=" stroke:none;fill-rule:nonzero;fill:rgb(92.96875%,10.984802%,14.109802%);fill-opacity:1;" d="M 834.433594 725.433594 L 165.566406 725.433594 C 146.726563 725.433594 131.449219 710.160156 131.449219 691.316406 L 131.449219 405.359375 C 131.449219 386.519531 146.726563 371.242188 165.566406 371.242188 L 834.433594 371.242188 C 853.273438 371.242188 868.550781 386.519531 868.550781 405.359375 L 868.550781 691.316406 C 868.550781 710.160156 853.273438 725.433594 834.433594 725.433594 "/>
<path style=" stroke:none;fill-rule:nonzero;fill:rgb(100%,100%,100%);fill-opacity:1;" d="M 229.226563 621.535156 L 249.539063 621.535156 C 257.308594 621.535156 262.761719 619.953125 265.902344 616.785156 C 269.035156 613.625 270.605469 608.109375 270.605469 600.253906 L 270.605469 433.277344 L 320.253906 433.277344 L 320.253906 607.453125 C 320.253906 624.046875 315.046875 636.8125 304.644531 645.761719 C 294.234375 654.714844 279.628906 659.183594 260.824219 659.183594 L 229.226563 659.183594 "/>
<path style=" stroke:none;fill-rule:nonzero;fill:rgb(100%,100%,100%);fill-opacity:1;" d="M 489.507813 527.570313 C 496.277344 522.117188 499.664063 514.367188 499.664063 504.324219 C 499.664063 493.414063 496.339844 485.0625 489.695313 479.277344 C 483.050781 473.496094 473.710938 470.601563 461.675781 470.601563 L 416.164063 470.601563 L 416.164063 535.753906 L 461.675781 535.753906 C 473.460938 535.753906 482.738281 533.027344 489.507813 527.570313 M 526.183594 452.269531 C 541.351563 464.929688 548.9375 482.28125 548.9375 504.324219 C 548.9375 525.277344 541.351563 542.03125 526.183594 554.578125 C 511.007813 567.132813 490.261719 573.40625 463.933594 573.40625 L 416.164063 573.40625 L 416.164063 659.183594 L 366.890625 659.183594 L 366.890625 433.277344 L 463.933594 433.277344 C 490.261719 433.277344 511.007813 439.613281 526.183594 452.269531 "/>
<path style=" stroke:none;fill-rule:nonzero;fill:rgb(100%,100%,100%);fill-opacity:1;" d="M 573.007813 571.769531 L 573.007813 520.039063 C 573.007813 460.019531 604.726563 430.003906 668.167969 430.003906 C 696.503906 430.003906 719.070313 436.503906 735.871094 449.488281 C 752.667969 462.476563 761.074219 480.425781 761.074219 503.34375 L 761.074219 505.632813 L 711.800781 505.632813 L 711.800781 503.34375 C 711.800781 493.085938 707.976563 484.574219 700.328125 477.804688 C 692.675781 471.042969 681.832031 467.65625 667.792969 467.65625 C 651.996094 467.65625 640.523438 471.914063 633.378906 480.425781 C 626.230469 488.9375 622.65625 502.910156 622.65625 522.332031 L 622.65625 571.113281 C 622.65625 589.667969 626.476563 603.035156 634.128906 611.222656 C 641.777344 619.40625 653.621094 623.496094 669.671875 623.496094 C 684.71875 623.496094 695.6875 620.117188 702.585938 613.347656 C 709.480469 606.585938 712.929688 596.324219 712.929688 582.574219 L 712.929688 571.769531 L 667.039063 571.769531 L 667.039063 536.410156 L 761.074219 536.410156 L 761.074219 575.042969 C 761.074219 632.886719 729.855469 661.804688 667.414063 661.804688 C 604.476563 661.804688 573.007813 631.792969 573.007813 571.769531 "/>
</g>
</svg>
