<?xml version="1.0" encoding="UTF-8"?>
<svg xmlns="http://www.w3.org/2000/svg" xmlns:xlink="http://www.w3.org/1999/xlink" width="1000pt" height="1000pt" viewBox="0 0 1000 1000" version="1.1">
<g id="surface1">
<path style=" stroke:none;fill-rule:nonzero;fill:rgb(0%,0%,0%);fill-opacity:1;" d="M 714.410156 477.421875 L 805.109375 477.421875 L 805.109375 439.875 L 666.769531 439.875 L 666.769531 670.550781 L 714.234375 670.550781 L 714.234375 575.398438 L 799.109375 575.398438 L 799.109375 537.632813 L 714.410156 537.632813 Z M 263.578125 670.648438 L 263.578125 585.898438 C 283.492188 587.839844 302.644531 587.628906 321.527344 582.894531 C 366.582031 571.601563 390.246094 532.890625 378.222656 489.597656 C 369.945313 459.777344 348.089844 445.429688 319.195313 440.601563 C 287.097656 435.234375 254.914063 437.910156 222.777344 441.230469 C 217.550781 441.769531 216.179688 443.46875 216.195313 448.644531 C 216.371094 520.660156 216.316406 592.675781 216.316406 664.691406 L 216.316406 670.648438 Z M 421.007813 669.4375 C 422.019531 670.019531 422.34375 670.351563 422.695313 670.386719 C 459.128906 674.078125 495.554688 675.890625 531.714844 668.175781 C 561.347656 661.851563 588.03125 649.742188 604.644531 623.003906 C 629.367188 583.222656 632.390625 540.621094 614.34375 497.820313 C 600.222656 464.335938 571.277344 448.21875 536.839844 441.765625 C 500.578125 434.972656 464.132813 437.574219 427.722656 441.265625 C 422.144531 441.828125 420.878906 443.765625 420.890625 449.054688 C 421.058594 520.460938 421.007813 591.867188 421.007813 663.273438 Z M 759.058594 715.511719 L 241.097656 715.511719 L 241.097656 861.730469 L 759.058594 861.730469 Z M 240.824219 381.230469 L 758.957031 381.230469 L 758.957031 307.949219 L 751.382813 307.949219 C 709.578125 307.949219 667.773438 307.957031 625.972656 307.945313 C 609.730469 307.941406 603.019531 301.265625 603.015625 285.113281 C 603.007813 235.800781 603.011719 186.484375 603.011719 137.167969 C 603.011719 134.800781 603.011719 132.433594 603.011719 130.011719 L 240.824219 130.011719 Z M 202.8125 381.746094 L 202.8125 373.585938 C 202.8125 292.402344 202.808594 211.21875 202.816406 130.035156 C 202.816406 105.539063 216.785156 91.503906 241.328125 91.5 C 366.949219 91.476563 492.570313 91.515625 618.195313 91.417969 C 626.503906 91.410156 632.90625 94.144531 638.425781 100.472656 C 689.113281 158.585938 739.921875 216.597656 790.808594 274.539063 C 795.40625 279.773438 797.230469 285.53125 797.207031 292.324219 C 797.113281 319.722656 797.171875 347.121094 797.171875 374.519531 L 797.171875 381.753906 C 802.859375 381.753906 807.878906 381.71875 812.898438 381.757813 C 841.03125 381.976563 861.949219 402.546875 861.992188 430.53125 C 862.105469 509.074219 862.109375 587.621094 861.992188 666.164063 C 861.953125 693.648438 841.542969 714.21875 814.09375 714.9375 C 808.664063 715.078125 803.230469 714.953125 797.171875 714.953125 L 797.171875 722.875 C 797.171875 772.191406 797.183594 821.511719 797.164063 870.828125 C 797.15625 894.472656 782.992188 908.574219 759.199219 908.574219 C 586.492188 908.585938 413.789063 908.585938 241.082031 908.574219 C 216.886719 908.574219 202.824219 894.570313 202.816406 870.511719 C 202.804688 821.394531 202.8125 772.28125 202.8125 723.164063 L 202.8125 714.941406 C 197.652344 714.941406 192.859375 714.972656 188.066406 714.9375 C 158.460938 714.699219 137.988281 694.265625 137.964844 664.636719 C 137.902344 587.105469 137.910156 509.574219 137.96875 432.046875 C 137.988281 402.339844 158.445313 381.882813 188.019531 381.75 C 192.652344 381.730469 197.28125 381.746094 202.8125 381.746094 "/>
<path style=" stroke:none;fill-rule:nonzero;fill:rgb(0%,0%,0%);fill-opacity:1;" d="M 495.628906 472.519531 C 502.554688 473.308594 510.527344 473.582031 518.210938 475.210938 C 548.726563 481.671875 567.445313 501.441406 572.578125 532.484375 C 575.390625 549.503906 574.566406 566.515625 570.050781 583.175781 C 561.878906 613.332031 539.480469 632.820313 508.160156 636.265625 C 496.953125 637.5 485.519531 636.726563 474.191406 636.828125 C 470.558594 636.859375 468.882813 635.390625 468.894531 631.328125 C 469.015625 581.007813 469.011719 530.691406 468.902344 480.371094 C 468.894531 476.472656 470.324219 474.867188 474.039063 474.566406 C 480.902344 474.007813 487.753906 473.277344 495.628906 472.519531 "/>
<path style=" stroke:none;fill-rule:nonzero;fill:rgb(0%,0%,0%);fill-opacity:1;" d="M 263.582031 512.34375 C 263.578125 501.398438 263.726563 490.449219 263.492188 479.511719 C 263.417969 475.945313 264.628906 474.378906 268.050781 473.859375 C 280.757813 471.921875 293.441406 471.019531 306.039063 474.4375 C 320.851563 478.460938 330.800781 487.464844 333.023438 503.074219 C 335.402344 519.753906 331.109375 534.308594 316.152344 543.773438 C 300.835938 553.472656 283.789063 552.972656 266.703125 550.394531 C 265.460938 550.203125 263.761719 547.40625 263.722656 545.785156 C 263.460938 534.644531 263.585938 523.492188 263.582031 512.34375 "/>
<path style=" stroke:none;fill-rule:nonzero;fill:rgb(92.96875%,10.984802%,14.109802%);fill-opacity:1;" d="M 834.640625 725.574219 L 165.359375 725.574219 C 146.503906 725.574219 131.21875 710.289063 131.21875 691.4375 L 131.21875 405.304688 C 131.21875 386.449219 146.503906 371.164063 165.359375 371.164063 L 834.640625 371.164063 C 853.496094 371.164063 868.78125 386.449219 868.78125 405.304688 L 868.78125 691.4375 C 868.78125 710.289063 853.496094 725.574219 834.640625 725.574219 "/>
<path style=" stroke:none;fill-rule:nonzero;fill:rgb(100%,100%,100%);fill-opacity:1;" d="M 495.628906 472.519531 C 487.753906 473.277344 480.902344 474.007813 474.039063 474.566406 C 470.324219 474.867188 468.894531 476.472656 468.902344 480.371094 C 469.011719 530.691406 469.015625 581.007813 468.894531 631.328125 C 468.882813 635.390625 470.558594 636.859375 474.191406 636.828125 C 485.519531 636.726563 496.953125 637.5 508.160156 636.265625 C 539.480469 632.820313 561.878906 613.332031 570.050781 583.175781 C 574.566406 566.515625 575.390625 549.503906 572.578125 532.484375 C 567.445313 501.441406 548.726563 481.671875 518.210938 475.210938 C 510.527344 473.582031 502.554688 473.308594 495.628906 472.519531 M 421.007813 669.4375 L 421.007813 663.273438 C 421.007813 591.867188 421.058594 520.460938 420.890625 449.054688 C 420.878906 443.761719 422.144531 441.828125 427.722656 441.261719 C 464.132813 437.574219 500.578125 434.96875 536.839844 441.765625 C 571.277344 448.21875 600.222656 464.335938 614.34375 497.820313 C 632.390625 540.621094 629.367188 583.21875 604.648438 623.003906 C 588.03125 649.742188 561.347656 661.851563 531.714844 668.175781 C 495.558594 675.890625 459.128906 674.078125 422.695313 670.386719 C 422.34375 670.347656 422.019531 670.015625 421.007813 669.4375 "/>
<path style=" stroke:none;fill-rule:nonzero;fill:rgb(100%,100%,100%);fill-opacity:1;" d="M 263.585938 512.34375 C 263.585938 523.492188 263.460938 534.644531 263.722656 545.785156 C 263.761719 547.40625 265.460938 550.203125 266.703125 550.394531 C 283.789063 552.972656 300.835938 553.472656 316.152344 543.773438 C 331.109375 534.308594 335.402344 519.753906 333.023438 503.074219 C 330.800781 487.464844 320.855469 478.460938 306.039063 474.4375 C 293.441406 471.019531 280.757813 471.921875 268.050781 473.859375 C 264.628906 474.378906 263.417969 475.945313 263.492188 479.511719 C 263.726563 490.449219 263.578125 501.398438 263.585938 512.34375 M 263.578125 670.648438 L 216.316406 670.648438 L 216.316406 664.691406 C 216.316406 592.675781 216.371094 520.660156 216.195313 448.644531 C 216.183594 443.46875 217.550781 441.769531 222.777344 441.230469 C 254.914063 437.910156 287.097656 435.234375 319.195313 440.601563 C 348.089844 445.425781 369.945313 459.777344 378.226563 489.597656 C 390.246094 532.890625 366.582031 571.601563 321.527344 582.894531 C 302.648438 587.628906 283.492188 587.839844 263.578125 585.898438 L 263.578125 628.011719 "/>
<path style=" stroke:none;fill-rule:nonzero;fill:rgb(100%,100%,100%);fill-opacity:1;" d="M 714.410156 477.421875 L 714.410156 537.632813 L 799.109375 537.632813 L 799.109375 575.398438 L 714.234375 575.398438 L 714.234375 670.550781 L 666.769531 670.550781 L 666.769531 439.875 L 805.109375 439.875 L 805.109375 477.421875 "/>
</g>
</svg>
