<?xml version="1.0" encoding="UTF-8" standalone="no"?>
<!DOCTYPE svg PUBLIC "-//W3C//DTD SVG 1.1//EN" "http://www.w3.org/Graphics/SVG/1.1/DTD/svg11.dtd">
<svg xmlns="http://www.w3.org/2000/svg" xmlns:xlink="http://www.w3.org/1999/xlink" version="1.1" width="475.469pt" height="476.977pt" viewBox="0 0 475.469 476.977">
<g enable-background="new">
<g>
<g id="Layer-1" data-name="Layer 1">
<path transform="matrix(1,0,0,-1,0,476.977)" d="M 447.948 94.131 L 27.519989 94.131 L 27.519989 183.961 L 447.948 183.961 Z " fill="#010101"/>
<path transform="matrix(1,0,0,-1,210.498,173.3847)" d="M 0 0 L 123.646 -49.752 L 123.646 85.135 L 0 134.887 Z " fill="#6c2e8b"/>
<path transform="matrix(1,0,0,-1,213.9126,174.1528)" d="M 0 0 L 103.07 91.326 L -3.415 83.082 L -3.415 53.125 L -1.279 22.557 Z " fill="#552d82"/>
<path transform="matrix(1,0,0,-1,378.8037,225.95839)" d="M 0 0 L -123.643 -49.749 L -123.643 85.139 L 0 134.888 Z " fill="#66b6e5"/>
<path transform="matrix(1,0,0,-1,99.7202,211.3393)" d="M 0 0 L 123.64 -49.751 L 123.64 85.139 L 0 134.888 Z " fill="#fab128"/>
<path transform="matrix(1,0,0,-1,111.2896,66.747989)" d="M 0 0 L 123.649 -49.748 L 243.711 -.473 L 120.065 49.276 Z " fill="#e91e8d"/>
<path transform="matrix(1,0,0,-1,40.4619,447.5619)" d="M 0 0 L -9.53 0 L -9.53 -8.873 L 1.133 -8.873 L 1.133 -11.541 L -12.743 -11.541 L -12.743 13.072 L .585 13.072 L .585 10.407 L -9.53 10.407 L -9.53 2.628 L 0 2.628 Z " fill="#231f20"/>
<clipPath id="cp0">
<path transform="matrix(1,0,0,-1,0,476.977)" d="M 0 476.977 L 475.469 476.977 L 475.469 0 L 0 0 Z "/>
</clipPath>
<g clip-path="url(#cp0)">
<path transform="matrix(1,0,0,-1,45.7197,459.1029)" d="M 0 0 L 0 24.613 L 3.503 24.613 L 11.357 12.163 C 13.144 9.28 14.605 6.72 15.74 4.163 L 15.849 4.2 C 15.554 7.488 15.48 10.482 15.48 14.28 L 15.48 24.613 L 18.475 24.613 L 18.475 0 L 15.262 0 L 7.448 12.488 C 5.734 15.23 4.089 18.039 2.884 20.71 L 2.769 20.673 C 2.957 17.565 2.993 14.61 2.993 10.519 L 2.993 0 Z " fill="#231f20"/>
<path transform="matrix(1,0,0,-1,88.5088,458.0072)" d="M 0 0 C -1.421 -.548 -4.271 -1.351 -7.596 -1.351 C -11.316 -1.351 -14.387 -.401 -16.797 1.897 C -18.919 3.946 -20.23 7.234 -20.23 11.067 C -20.23 18.405 -15.155 23.771 -6.9 23.771 C -4.054 23.771 -1.787 23.151 -.729 22.643 L -1.532 20.048 C -2.848 20.668 -4.486 21.108 -6.976 21.108 C -12.964 21.108 -16.871 17.383 -16.871 11.213 C -16.871 4.967 -13.147 1.281 -7.375 1.281 C -5.294 1.281 -3.872 1.572 -3.137 1.935 L -3.137 9.275 L -8.105 9.275 L -8.105 11.833 L 0 11.833 Z " fill="#231f20"/>
<path transform="matrix(1,0,0,-1,0,476.977)" d="M 96.502 17.874 L 93.291 17.874 L 93.291 42.487 L 96.502 42.487 Z " fill="#231f20"/>
<path transform="matrix(1,0,0,-1,102.0493,459.1029)" d="M 0 0 L 0 24.613 L 3.506 24.613 L 11.357 12.163 C 13.147 9.28 14.608 6.72 15.74 4.163 L 15.849 4.2 C 15.556 7.488 15.483 10.482 15.483 14.28 L 15.483 24.613 L 18.477 24.613 L 18.477 0 L 15.264 0 L 7.448 12.488 C 5.734 15.23 4.093 18.039 2.888 20.71 L 2.775 20.673 C 2.955 17.565 2.997 14.61 2.997 10.519 L 2.997 0 Z " fill="#231f20"/>
<path transform="matrix(1,0,0,-1,138.7798,447.5619)" d="M 0 0 L -9.53 0 L -9.53 -8.873 L 1.133 -8.873 L 1.133 -11.541 L -12.741 -11.541 L -12.741 13.072 L .585 13.072 L .585 10.407 L -9.53 10.407 L -9.53 2.628 L 0 2.628 Z " fill="#231f20"/>
<path transform="matrix(1,0,0,-1,156.7456,447.5619)" d="M 0 0 L -9.536 0 L -9.536 -8.873 L 1.129 -8.873 L 1.129 -11.541 L -12.747 -11.541 L -12.747 13.072 L .578 13.072 L .578 10.407 L -9.536 10.407 L -9.536 2.628 L 0 2.628 Z " fill="#231f20"/>
<path transform="matrix(1,0,0,-1,165.1738,446.0297)" d="M 0 0 L 3.251 0 C 6.651 0 8.803 1.864 8.803 4.676 C 8.803 7.851 6.496 9.24 3.143 9.24 C 1.609 9.24 .552 9.093 0 8.948 Z M -3.18 11.174 C -1.568 11.504 .766 11.723 2.92 11.723 C 6.317 11.723 8.544 11.063 10.082 9.681 C 11.289 8.618 12.018 6.942 12.018 5.005 C 12.018 1.79 9.932 -.363 7.376 -1.244 L 7.376 -1.35 C 9.24 -2.008 10.372 -3.763 10.992 -6.315 C 11.794 -9.752 12.383 -12.127 12.859 -13.073 L 9.567 -13.073 C 9.165 -12.379 8.62 -10.257 7.961 -7.195 C 7.23 -3.793 5.881 -2.52 2.994 -2.407 L 0 -2.407 L 0 -13.073 L -3.18 -13.073 Z " fill="#231f20"/>
<path transform="matrix(1,0,0,-1,0,476.977)" d="M 184.813 17.874 L 181.602 17.874 L 181.602 42.487 L 184.813 42.487 Z " fill="#231f20"/>
<path transform="matrix(1,0,0,-1,190.3647,459.1029)" d="M 0 0 L 0 24.613 L 3.504 24.613 L 11.357 12.163 C 13.145 9.28 14.605 6.72 15.74 4.163 L 15.851 4.2 C 15.557 7.488 15.48 10.482 15.48 14.28 L 15.48 24.613 L 18.479 24.613 L 18.479 0 L 15.264 0 L 7.448 12.488 C 5.737 15.23 4.089 18.039 2.883 20.71 L 2.773 20.673 C 2.96 17.565 2.993 14.61 2.993 10.519 L 2.993 0 Z " fill="#231f20"/>
<path transform="matrix(1,0,0,-1,233.1557,458.0072)" d="M 0 0 C -1.421 -.548 -4.272 -1.351 -7.594 -1.351 C -11.322 -1.351 -14.386 -.401 -16.794 1.897 C -18.916 3.946 -20.229 7.234 -20.229 11.067 C -20.229 18.405 -15.155 23.771 -6.898 23.771 C -4.051 23.771 -1.783 23.151 -.728 22.643 L -1.53 20.048 C -2.844 20.668 -4.487 21.108 -6.973 21.108 C -12.963 21.108 -16.87 17.383 -16.87 11.213 C -16.87 4.967 -13.146 1.281 -7.373 1.281 C -5.292 1.281 -3.865 1.572 -3.139 1.935 L -3.139 9.275 L -8.104 9.275 L -8.104 11.833 L 0 11.833 Z " fill="#231f20"/>
<path transform="matrix(1,0,0,-1,262.875,458.33729)" d="M 0 0 C -1.133 -.583 -3.505 -1.168 -6.498 -1.168 C -13.438 -1.168 -18.624 3.215 -18.624 11.324 C -18.624 19.063 -13.398 24.246 -5.769 24.246 C -2.74 24.246 -.77 23.593 .077 23.155 L -.73 20.564 C -1.9 21.146 -3.615 21.588 -5.66 21.588 C -11.433 21.588 -15.264 17.894 -15.264 11.435 C -15.264 5.372 -11.794 1.534 -5.843 1.534 C -3.871 1.534 -1.9 1.937 -.622 2.556 Z " fill="#231f20"/>
<path transform="matrix(1,0,0,-1,275.7637,456.9105)" d="M 0 0 C 5.04 0 7.888 4.638 7.888 10.222 C 7.888 15.114 5.33 20.228 .037 20.228 C -5.258 20.228 -7.891 15.303 -7.891 9.971 C -7.891 4.781 -5.04 0 -.037 0 Z M -.147 -2.595 C -6.684 -2.595 -11.213 2.447 -11.213 9.897 C -11.213 17.711 -6.391 22.819 .185 22.819 C 6.939 22.819 11.283 17.676 11.283 10.371 C 11.283 1.933 6.135 -2.595 -.107 -2.595 Z " fill="#231f20"/>
<path transform="matrix(1,0,0,-1,291.1699,459.1029)" d="M 0 0 L 0 24.613 L 3.501 24.613 L 11.358 12.163 C 13.146 9.28 14.606 6.72 15.732 4.163 L 15.846 4.2 C 15.554 7.488 15.485 10.482 15.485 14.28 L 15.485 24.613 L 18.475 24.613 L 18.475 0 L 15.26 0 L 7.446 12.488 C 5.732 15.23 4.086 18.039 2.885 20.71 L 2.772 20.673 C 2.955 17.565 2.995 14.61 2.995 10.519 L 2.995 0 Z " fill="#231f20"/>
<path transform="matrix(1,0,0,-1,314.792,455.2279)" d="M 0 0 C 1.423 -.913 3.47 -1.609 5.66 -1.609 C 8.904 -1.609 10.802 .072 10.802 2.588 C 10.802 4.854 9.495 6.205 6.166 7.443 C 2.148 8.905 -.332 11.025 -.332 14.458 C -.332 18.291 2.844 21.137 7.628 21.137 C 10.111 21.137 11.979 20.555 13.034 19.935 L 12.158 17.346 C 11.389 17.816 9.742 18.512 7.517 18.512 C 4.16 18.512 2.881 16.504 2.881 14.821 C 2.881 12.52 4.378 11.389 7.776 10.076 C 11.938 8.434 14.021 6.46 14.021 2.845 C 14.021 -.952 11.246 -4.277 5.44 -4.277 C 3.063 -4.277 .471 -3.545 -.843 -2.668 Z " fill="#231f20"/>
<path transform="matrix(1,0,0,-1,336.3691,434.4896)" d="M 0 0 L 0 -14.605 C 0 -20.085 2.445 -22.421 5.732 -22.421 C 9.349 -22.421 11.721 -20.011 11.721 -14.605 L 11.721 0 L 14.936 0 L 14.936 -14.39 C 14.936 -21.945 10.953 -25.016 5.62 -25.016 C .582 -25.016 -3.215 -22.166 -3.215 -14.496 L -3.215 0 Z " fill="#231f20"/>
<path transform="matrix(1,0,0,-1,356.7744,434.4896)" d="M 0 0 L 3.213 0 L 3.213 -21.945 L 13.734 -21.945 L 13.734 -24.613 L 0 -24.613 Z " fill="#231f20"/>
<path transform="matrix(1,0,0,-1,375.4346,437.1918)" d="M 0 0 L -7.483 0 L -7.483 2.702 L 10.738 2.702 L 10.738 0 L 3.215 0 L 3.215 -21.911 L 0 -21.911 Z " fill="#231f20"/>
<path transform="matrix(1,0,0,-1,398.2197,448.8793)" d="M 0 0 L -2.448 7.083 C -2.952 8.694 -3.316 10.155 -3.686 11.578 L -3.798 11.578 C -4.124 10.155 -4.526 8.618 -5.001 7.122 L -7.409 0 Z M -8.068 -2.485 L -10.622 -10.224 L -13.912 -10.224 L -5.546 14.39 L -1.712 14.39 L 6.687 -10.224 L 3.289 -10.224 L .659 -2.485 Z " fill="#231f20"/>
<path transform="matrix(1,0,0,-1,408.5127,459.1029)" d="M 0 0 L 0 24.613 L 3.508 24.613 L 11.356 12.163 C 13.145 9.28 14.608 6.72 15.739 4.163 L 15.851 4.2 C 15.559 7.488 15.483 10.482 15.483 14.28 L 15.483 24.613 L 18.479 24.613 L 18.479 0 L 15.264 0 L 7.448 12.488 C 5.731 15.23 4.09 18.039 2.884 20.71 L 2.777 20.673 C 2.96 17.565 2.993 14.61 2.993 10.519 L 2.993 0 Z " fill="#231f20"/>
<path transform="matrix(1,0,0,-1,437.2109,437.1918)" d="M 0 0 L -7.486 0 L -7.486 2.702 L 10.737 2.702 L 10.737 0 L 3.212 0 L 3.212 -21.911 L 0 -21.911 Z " fill="#231f20"/>
<path transform="matrix(1,0,0,-1,38.6421,396.1908)" d="M 0 0 C 0 .273 .056 .537 .158 .779 C .267 1.023 .406 1.238 .585 1.419 C .757 1.6 .968 1.742 1.212 1.846 C 1.453 1.957 1.716 2.012 1.992 2.012 C 2.268 2.012 2.524 1.957 2.77 1.846 C 3.011 1.742 3.225 1.6 3.41 1.419 C 3.589 1.238 3.735 1.023 3.838 .779 C 3.947 .537 4 .273 4 0 C 4 -.276 3.947 -.534 3.838 -.784 C 3.735 -1.024 3.589 -1.231 3.41 -1.409 C 3.225 -1.585 3.011 -1.728 2.77 -1.831 C 2.524 -1.937 2.268 -1.992 1.992 -1.992 C 1.425 -1.992 .954 -1.799 .571 -1.416 C .191 -1.038 0 -.566 0 0 M -5.349 0 C -5.349 .273 -5.3 .537 -5.191 .779 C -5.085 1.023 -4.941 1.238 -4.77 1.419 C -4.59 1.6 -4.383 1.742 -4.144 1.846 C -3.898 1.957 -3.635 2.012 -3.361 2.012 C -3.086 2.012 -2.827 1.957 -2.586 1.846 C -2.334 1.742 -2.124 1.6 -1.945 1.419 C -1.76 1.238 -1.616 1.023 -1.511 .779 C -1.407 .537 -1.351 .273 -1.351 0 C -1.351 -.276 -1.407 -.534 -1.511 -.784 C -1.616 -1.024 -1.76 -1.231 -1.945 -1.409 C -2.124 -1.585 -2.334 -1.728 -2.586 -1.831 C -2.827 -1.937 -3.086 -1.992 -3.361 -1.992 C -3.923 -1.992 -4.397 -1.799 -4.776 -1.416 C -5.163 -1.038 -5.349 -.566 -5.349 0 M .674 -9.576 C -.571 -9.814 -1.716 -10.098 -2.742 -10.421 C -3.766 -10.747 -4.652 -11.123 -5.391 -11.558 C -6.125 -11.988 -6.698 -12.477 -7.104 -13.01 C -7.512 -13.55 -7.715 -14.163 -7.715 -14.834 C -7.715 -15.385 -7.601 -15.848 -7.369 -16.222 C -7.141 -16.599 -6.837 -16.899 -6.458 -17.124 C -6.085 -17.349 -5.666 -17.511 -5.198 -17.616 C -4.738 -17.715 -4.265 -17.762 -3.789 -17.762 C -2.9 -17.762 -2.089 -17.649 -1.344 -17.425 C -.596 -17.2 .076 -16.889 .674 -16.486 Z M 4.056 -16.187 C 4.056 -16.686 4.086 -17.108 4.142 -17.444 C 4.197 -17.783 4.316 -18.052 4.499 -18.248 C 4.678 -18.45 4.935 -18.593 5.258 -18.683 C 5.581 -18.772 6.017 -18.816 6.552 -18.816 L 7.87 -18.816 C 8.318 -18.816 8.655 -18.89 8.883 -19.043 C 9.11 -19.192 9.221 -19.448 9.221 -19.809 L 9.221 -21.104 C 9.221 -21.344 9.186 -21.532 9.115 -21.678 C 9.049 -21.823 8.952 -21.933 8.827 -22.004 C 8.703 -22.08 8.555 -22.133 8.394 -22.157 C 8.23 -22.184 8.056 -22.196 7.87 -22.196 L 5.706 -22.196 C 4.871 -22.196 4.158 -22.115 3.577 -21.959 C 2.992 -21.801 2.505 -21.599 2.122 -21.341 C 1.735 -21.084 1.438 -20.781 1.233 -20.437 C 1.028 -20.097 .873 -19.733 .771 -19.357 C -.158 -19.925 -1.042 -20.323 -1.875 -20.562 C -2.716 -20.799 -3.566 -20.919 -4.432 -20.919 C -5.182 -20.919 -5.939 -20.813 -6.702 -20.599 C -7.468 -20.385 -8.16 -20.051 -8.778 -19.593 C -9.396 -19.14 -9.904 -18.553 -10.299 -17.838 C -10.696 -17.124 -10.89 -16.269 -10.89 -15.264 C -10.89 -14.327 -10.696 -13.482 -10.31 -12.739 C -9.923 -11.995 -9.411 -11.329 -8.778 -10.742 C -8.146 -10.15 -7.422 -9.638 -6.608 -9.203 C -5.795 -8.765 -4.959 -8.376 -4.102 -8.042 C -3.247 -7.71 -2.405 -7.428 -1.579 -7.192 C -.752 -6.953 0 -6.74 .674 -6.555 L .674 -4.562 L 4.056 -4.562 Z " fill="#231f20"/>
<path transform="matrix(1,0,0,-1,53.7969,417.2953)" d="M 0 0 C 0 -.239 -.035 -.428 -.105 -.573 C -.172 -.719 -.271 -.828 -.394 -.899 C -.517 -.976 -.666 -1.028 -.828 -1.053 C -.991 -1.079 -1.167 -1.092 -1.353 -1.092 L -7.304 -1.092 C -7.491 -1.092 -7.669 -1.079 -7.831 -1.053 C -7.995 -1.028 -8.141 -.976 -8.263 -.899 C -8.388 -.828 -8.485 -.719 -8.551 -.573 C -8.622 -.428 -8.657 -.239 -8.657 0 L -8.657 1.296 C -8.657 1.656 -8.546 1.912 -8.32 2.062 C -8.095 2.215 -7.757 2.288 -7.304 2.288 L -1.353 2.288 C -.903 2.288 -.565 2.215 -.339 2.062 C -.112 1.912 0 1.656 0 1.296 Z " fill="#231f20"/>
<path transform="matrix(1,0,0,-1,59.7451,417.2953)" d="M 0 0 C 0 -.239 -.028 -.428 -.098 -.573 C -.17 -.719 -.267 -.828 -.39 -.899 C -.518 -.976 -.661 -1.028 -.826 -1.053 C -.987 -1.079 -1.163 -1.092 -1.349 -1.092 L -7.301 -1.092 C -7.487 -1.092 -7.665 -1.079 -7.828 -1.053 C -7.99 -1.028 -8.133 -.976 -8.258 -.899 C -8.383 -.828 -8.481 -.719 -8.548 -.573 C -8.62 -.428 -8.65 -.239 -8.65 0 L -8.65 1.296 C -8.65 1.656 -8.541 1.912 -8.313 2.062 C -8.088 2.215 -7.75 2.288 -7.301 2.288 L -1.349 2.288 C -.898 2.288 -.561 2.215 -.335 2.062 C -.113 1.912 0 1.656 0 1.296 Z " fill="#231f20"/>
<path transform="matrix(1,0,0,-1,65.6421,424.0189)" d="M 0 0 C 0 .276 .055 .532 .16 .78 C .269 1.022 .406 1.238 .585 1.416 C .759 1.599 .968 1.743 1.212 1.852 C 1.457 1.957 1.716 2.012 1.992 2.012 C 2.268 2.012 2.524 1.957 2.771 1.852 C 3.013 1.743 3.229 1.599 3.41 1.416 C 3.589 1.238 3.733 1.022 3.838 .78 C 3.947 .532 4.004 .276 4.004 0 C 4.004 -.275 3.947 -.533 3.838 -.777 C 3.733 -1.023 3.589 -1.232 3.41 -1.408 C 3.229 -1.584 3.013 -1.727 2.771 -1.834 C 2.524 -1.937 2.268 -1.986 1.992 -1.986 C 1.426 -1.986 .959 -1.799 .573 -1.419 C .191 -1.032 0 -.562 0 0 M -5.349 0 C -5.349 .276 -5.296 .532 -5.191 .78 C -5.085 1.022 -4.941 1.238 -4.769 1.416 C -4.59 1.599 -4.383 1.743 -4.139 1.852 C -3.895 1.957 -3.634 2.012 -3.357 2.012 C -3.086 2.012 -2.826 1.957 -2.582 1.852 C -2.336 1.743 -2.124 1.599 -1.944 1.416 C -1.758 1.238 -1.616 1.022 -1.509 .78 C -1.403 .532 -1.351 .276 -1.351 0 C -1.351 -.275 -1.403 -.533 -1.509 -.777 C -1.616 -1.023 -1.758 -1.232 -1.944 -1.408 C -2.124 -1.584 -2.336 -1.727 -2.582 -1.834 C -2.826 -1.937 -3.086 -1.986 -3.357 -1.986 C -3.922 -1.986 -4.397 -1.799 -4.776 -1.419 C -5.163 -1.032 -5.349 -.562 -5.349 0 M 1.223 10.179 C 1.783 9.79 2.452 9.502 3.222 9.304 C 3.989 9.11 4.91 9.012 5.975 9.012 L 6.119 9.012 C 6.575 9.012 6.913 8.938 7.137 8.785 C 7.359 8.636 7.471 8.38 7.471 8.02 L 7.471 6.724 C 7.471 6.484 7.441 6.296 7.369 6.15 C 7.299 6.005 7.205 5.896 7.082 5.824 C 6.953 5.748 6.809 5.695 6.649 5.671 C 6.484 5.645 6.312 5.632 6.119 5.632 L 5.933 5.632 C 4.634 5.632 3.548 5.803 2.686 6.14 C 1.822 6.479 1.084 6.906 .474 7.419 C .166 6.918 -.254 6.495 -.78 6.15 C -1.298 5.807 -1.96 5.632 -2.758 5.632 L -7.246 5.632 C -7.698 5.632 -8.037 5.71 -8.262 5.857 C -8.486 6.007 -8.603 6.265 -8.603 6.628 L -8.603 7.925 C -8.603 8.164 -8.564 8.354 -8.493 8.494 C -8.43 8.644 -8.328 8.754 -8.204 8.829 C -8.081 8.905 -7.931 8.952 -7.773 8.979 C -7.608 9.002 -7.436 9.012 -7.246 9.012 L -3.452 9.012 C -3.055 9.012 -2.735 9.191 -2.51 9.537 C -2.275 9.889 -2.159 10.423 -2.159 11.138 L -2.159 20.127 L 1.223 20.127 Z " fill="#231f20"/>
<path transform="matrix(1,0,0,-1,79.0859,417.2953)" d="M 0 0 C 0 -.239 -.035 -.428 -.102 -.573 C -.172 -.719 -.267 -.828 -.392 -.899 C -.516 -.976 -.66 -1.028 -.827 -1.053 C -.985 -1.079 -1.163 -1.092 -1.349 -1.092 L -7.304 -1.092 C -7.49 -1.092 -7.669 -1.079 -7.828 -1.053 C -7.993 -1.028 -8.133 -.976 -8.263 -.899 C -8.386 -.828 -8.481 -.719 -8.551 -.573 C -8.622 -.428 -8.655 -.239 -8.655 0 L -8.655 1.296 C -8.655 1.656 -8.541 1.912 -8.316 2.062 C -8.089 2.215 -7.752 2.288 -7.304 2.288 L -1.349 2.288 C -.903 2.288 -.562 2.215 -.337 2.062 C -.109 1.912 0 1.656 0 1.296 Z " fill="#231f20"/>
<path transform="matrix(1,0,0,-1,85.041,417.2953)" d="M 0 0 C 0 -.239 -.033 -.428 -.104 -.573 C -.172 -.719 -.27 -.828 -.397 -.899 C -.52 -.976 -.664 -1.028 -.827 -1.053 C -.992 -1.079 -1.165 -1.092 -1.351 -1.092 L -7.304 -1.092 C -7.494 -1.092 -7.669 -1.079 -7.831 -1.053 C -7.993 -1.028 -8.139 -.976 -8.263 -.899 C -8.386 -.828 -8.483 -.719 -8.551 -.573 C -8.622 -.428 -8.655 -.239 -8.655 0 L -8.655 1.296 C -8.655 1.656 -8.546 1.912 -8.321 2.062 C -8.095 2.215 -7.757 2.288 -7.304 2.288 L -1.351 2.288 C -.903 2.288 -.565 2.215 -.337 2.062 C -.114 1.912 0 1.656 0 1.296 Z " fill="#231f20"/>
<path transform="matrix(1,0,0,-1,90.9912,417.2953)" d="M 0 0 C 0 -.239 -.03 -.428 -.1 -.573 C -.172 -.719 -.272 -.828 -.396 -.899 C -.52 -.976 -.666 -1.028 -.824 -1.053 C -.989 -1.079 -1.165 -1.092 -1.354 -1.092 L -7.301 -1.092 C -7.492 -1.092 -7.667 -1.079 -7.828 -1.053 C -7.989 -1.028 -8.135 -.976 -8.258 -.899 C -8.383 -.828 -8.483 -.719 -8.546 -.573 C -8.62 -.428 -8.655 -.239 -8.655 0 L -8.655 1.296 C -8.655 1.656 -8.541 1.912 -8.314 2.062 C -8.093 2.215 -7.752 2.288 -7.301 2.288 L -1.354 2.288 C -.898 2.288 -.561 2.215 -.337 2.062 C -.114 1.912 0 1.656 0 1.296 Z " fill="#231f20"/>
<path transform="matrix(1,0,0,-1,99.8149,413.8246)" d="M 0 0 C .666 -.46 1.407 -.778 2.224 -.937 C 3.039 -1.096 3.9 -1.183 4.804 -1.183 L 6.099 -1.183 C 6.503 -1.183 6.816 -1.003 7.051 -.657 C 7.285 -.306 7.403 .229 7.403 .943 L 7.403 7.907 L 10.779 7.907 L 10.779 -.016 C 11.408 -.453 12.128 -.757 12.943 -.924 C 13.758 -1.096 14.638 -1.183 15.578 -1.183 L 18.291 -1.183 L 18.291 9.953 L 21.67 9.953 L 21.67 -4.562 L 15.534 -4.562 C 15.122 -4.562 14.679 -4.536 14.205 -4.484 C 13.729 -4.436 13.245 -4.343 12.757 -4.213 C 12.272 -4.081 11.792 -3.901 11.324 -3.679 C 10.853 -3.454 10.42 -3.165 10.02 -2.813 C 9.708 -3.316 9.288 -3.729 8.762 -4.064 C 8.235 -4.396 7.582 -4.562 6.791 -4.562 L 4.764 -4.562 C 4.281 -4.562 3.791 -4.528 3.303 -4.467 C 2.814 -4.402 2.331 -4.306 1.858 -4.167 C 1.384 -4.026 .924 -3.847 .486 -3.619 C .049 -3.396 -.358 -3.123 -.731 -2.793 C -1.047 -3.296 -1.467 -3.716 -1.99 -4.055 C -2.514 -4.392 -3.176 -4.562 -3.979 -4.562 L -10.178 -4.562 C -10.625 -4.562 -10.963 -4.484 -11.19 -4.337 C -11.415 -4.187 -11.527 -3.93 -11.527 -3.566 L -11.527 -2.27 C -11.527 -2.03 -11.492 -1.841 -11.425 -1.7 C -11.355 -1.551 -11.26 -1.44 -11.134 -1.365 C -11.007 -1.289 -10.86 -1.242 -10.702 -1.216 C -10.537 -1.192 -10.364 -1.183 -10.178 -1.183 L -4.673 -1.183 C -4.272 -1.183 -3.954 -1.003 -3.728 -.657 C -3.492 -.306 -3.38 .229 -3.38 .943 L -3.38 6.312 L 0 6.312 Z " fill="#231f20"/>
<path transform="matrix(1,0,0,-1,125.8398,418.3871)" d="M 0 0 L 0 3.38 L 6.407 3.38 C 7.296 3.38 8.023 3.432 8.592 3.542 C 9.163 3.647 9.611 3.806 9.934 4.015 C 10.261 4.213 10.486 4.466 10.609 4.765 C 10.735 5.053 10.798 5.392 10.798 5.763 C 10.798 6.432 10.621 7.127 10.266 7.861 C 9.906 8.593 9.439 9.321 8.857 10.047 C 8.274 10.774 7.619 11.482 6.895 12.176 C 6.166 12.877 5.436 13.519 4.694 14.122 L 7.19 16.578 C 8.02 15.866 8.831 15.087 9.625 14.243 C 10.417 13.402 11.136 12.523 11.768 11.614 C 12.397 10.707 12.907 9.778 13.293 8.826 C 13.685 7.876 13.876 6.939 13.876 6.009 C 13.876 5.561 13.843 5.125 13.767 4.717 C 14.352 4.264 15.05 3.93 15.849 3.711 C 16.652 3.489 17.613 3.38 18.742 3.38 L 18.89 3.38 C 19.343 3.38 19.68 3.307 19.905 3.153 C 20.13 3.004 20.246 2.748 20.246 2.388 L 20.246 1.092 C 20.246 .853 20.209 .664 20.141 .519 C 20.074 .373 19.976 .264 19.853 .192 C 19.724 .116 19.579 .063 19.417 .039 C 19.255 .013 19.08 0 18.89 0 L 18.702 0 C 17.962 0 17.295 .059 16.696 .171 C 16.097 .281 15.554 .439 15.08 .64 C 14.604 .838 14.175 1.079 13.794 1.354 C 13.414 1.627 13.063 1.922 12.754 2.235 C 12.199 1.536 11.445 .987 10.489 .591 C 9.534 .202 8.316 0 6.833 0 Z " fill="#231f20"/>
<path transform="matrix(1,0,0,-1,149.3706,397.1313)" d="M 0 0 C 0 .276 .053 .532 .158 .78 C .264 1.026 .408 1.237 .578 1.418 C .759 1.598 .964 1.746 1.21 1.851 C 1.451 1.955 1.713 2.012 1.989 2.012 C 2.261 2.012 2.523 1.955 2.765 1.851 C 3.011 1.746 3.226 1.598 3.405 1.418 C 3.587 1.237 3.733 1.026 3.84 .78 C 3.942 .532 3.997 .276 3.997 0 C 3.997 -.273 3.942 -.535 3.84 -.779 C 3.733 -1.021 3.587 -1.234 3.405 -1.408 C 3.226 -1.582 3.011 -1.723 2.765 -1.826 C 2.523 -1.934 2.261 -1.988 1.989 -1.988 C 1.428 -1.988 .951 -1.8 .573 -1.421 C .187 -1.034 0 -.563 0 0 M 3.83 -16.709 C 4.39 -17.098 5.06 -17.386 5.831 -17.584 C 6.597 -17.777 7.515 -17.876 8.576 -17.876 L 8.728 -17.876 C 9.181 -17.876 9.518 -17.949 9.741 -18.103 C 9.969 -18.252 10.083 -18.508 10.083 -18.868 L 10.083 -20.164 C 10.083 -20.403 10.048 -20.592 9.978 -20.737 C 9.911 -20.883 9.81 -20.992 9.69 -21.063 C 9.563 -21.14 9.419 -21.192 9.256 -21.217 C 9.094 -21.243 8.919 -21.256 8.728 -21.256 L 8.538 -21.256 C 7.241 -21.256 6.159 -21.085 5.295 -20.748 C 4.431 -20.409 3.693 -19.981 3.082 -19.469 C 2.772 -19.97 2.354 -20.393 1.831 -20.737 C 1.311 -21.081 .648 -21.256 -.151 -21.256 L -4.641 -21.256 C -5.091 -21.256 -5.428 -21.178 -5.655 -21.03 C -5.877 -20.881 -5.997 -20.623 -5.997 -20.26 L -5.997 -18.963 C -5.997 -18.724 -5.957 -18.534 -5.888 -18.394 C -5.818 -18.244 -5.723 -18.134 -5.597 -18.059 C -5.47 -17.982 -5.326 -17.936 -5.168 -17.909 C -5.003 -17.886 -4.829 -17.876 -4.641 -17.876 L -.847 -17.876 C -.446 -17.876 -.13 -17.696 .102 -17.351 C .331 -16.999 .45 -16.465 .45 -15.75 L .45 -6.761 L 3.83 -6.761 Z " fill="#231f20"/>
<path transform="matrix(1,0,0,-1,173.3281,411.02479)" d="M 0 0 C 0 .536 -.081 1.055 -.242 1.548 C -.407 2.043 -.622 2.48 -.885 2.864 C -1.145 3.247 -1.444 3.553 -1.767 3.782 C -2.09 4.015 -2.415 4.129 -2.738 4.129 C -2.932 4.129 -3.165 4.028 -3.455 3.817 C -3.745 3.614 -4.054 3.331 -4.386 2.971 C -4.716 2.601 -5.054 2.168 -5.391 1.66 C -5.73 1.158 -6.039 .6 -6.329 0 C -6.614 -.603 -6.867 -1.238 -7.079 -1.913 C -7.29 -2.591 -7.427 -3.279 -7.494 -3.982 L -4.316 -3.982 C -3.678 -3.982 -3.091 -3.88 -2.563 -3.68 C -2.03 -3.481 -1.574 -3.198 -1.194 -2.846 C -.808 -2.487 -.516 -2.067 -.309 -1.588 C -.104 -1.106 0 -.576 0 0 M -8 -7.362 C -8 -8.776 -7.826 -9.981 -7.479 -10.982 C -7.139 -11.987 -6.708 -12.801 -6.187 -13.426 C -5.667 -14.048 -5.101 -14.508 -4.49 -14.798 C -3.875 -15.086 -3.292 -15.227 -2.738 -15.227 C -2.394 -15.227 -2.069 -15.135 -1.774 -14.947 C -1.476 -14.759 -1.229 -14.508 -1.015 -14.195 C -.801 -13.885 -.636 -13.524 -.516 -13.113 C -.395 -12.707 -.337 -12.288 -.337 -11.845 C -.337 -11.271 -.437 -10.717 -.629 -10.178 C -.822 -9.637 -1.098 -9.159 -1.458 -8.737 C -1.811 -8.321 -2.243 -7.987 -2.749 -7.739 C -3.26 -7.486 -3.831 -7.362 -4.469 -7.362 Z M -15.209 -7.362 C -15.661 -7.362 -15.996 -7.284 -16.225 -7.137 C -16.449 -6.987 -16.558 -6.729 -16.558 -6.366 L -16.558 -5.069 C -16.558 -4.83 -16.528 -4.641 -16.458 -4.5 C -16.39 -4.351 -16.295 -4.24 -16.168 -4.165 C -16.042 -4.089 -15.898 -4.042 -15.736 -4.016 C -15.575 -3.992 -15.397 -3.982 -15.209 -3.982 L -10.684 -3.982 C -10.371 -2.54 -9.978 -1.254 -9.497 -.117 C -9.022 1.009 -8.515 2.005 -7.961 2.864 C -7.411 3.721 -6.846 4.448 -6.26 5.042 C -5.681 5.636 -5.122 6.124 -4.588 6.505 C -4.061 6.885 -3.577 7.168 -3.144 7.333 C -2.712 7.501 -2.366 7.584 -2.104 7.584 C -1.388 7.584 -.72 7.384 -.104 6.983 C .519 6.585 1.054 6.058 1.513 5.405 C 1.968 4.756 2.326 4.021 2.593 3.201 C 2.853 2.381 2.987 1.55 2.987 .714 C 2.987 -.236 2.823 -1.098 2.498 -1.877 C 2.171 -2.654 1.727 -3.319 1.165 -3.886 L 1.165 -3.982 L 6.929 -3.982 C 7.378 -3.982 7.716 -4.056 7.942 -4.209 C 8.169 -4.358 8.281 -4.614 8.281 -4.975 L 8.281 -6.271 C 8.281 -6.51 8.246 -6.698 8.176 -6.844 C 8.109 -6.989 8.012 -7.099 7.888 -7.17 C 7.761 -7.246 7.621 -7.299 7.452 -7.323 C 7.294 -7.35 7.115 -7.362 6.929 -7.362 L .752 -7.362 L .752 -7.453 C 1.3 -7.954 1.766 -8.593 2.14 -9.371 C 2.516 -10.147 2.706 -11.077 2.706 -12.166 C 2.706 -13.18 2.526 -14.083 2.179 -14.872 C 1.827 -15.655 1.376 -16.322 .828 -16.854 C .274 -17.384 -.333 -17.793 -1.006 -18.068 C -1.674 -18.355 -2.329 -18.496 -2.965 -18.496 C -3.483 -18.496 -4.033 -18.427 -4.627 -18.286 C -5.226 -18.147 -5.82 -17.916 -6.422 -17.588 C -7.021 -17.252 -7.603 -16.808 -8.168 -16.249 C -8.734 -15.692 -9.229 -15.002 -9.658 -14.187 C -10.09 -13.364 -10.436 -12.395 -10.694 -11.267 C -10.949 -10.139 -11.078 -8.838 -11.078 -7.362 Z " fill="#231f20"/>
<path transform="matrix(1,0,0,-1,187.5625,417.2953)" d="M 0 0 C 0 -.239 -.037 -.428 -.107 -.573 C -.172 -.719 -.269 -.828 -.395 -.899 C -.52 -.976 -.667 -1.028 -.826 -1.053 C -.992 -1.079 -1.165 -1.092 -1.354 -1.092 L -7.306 -1.092 C -7.496 -1.092 -7.671 -1.079 -7.836 -1.053 C -7.994 -1.028 -8.139 -.976 -8.262 -.899 C -8.386 -.828 -8.486 -.719 -8.555 -.573 C -8.623 -.428 -8.659 -.239 -8.659 0 L -8.659 1.296 C -8.659 1.656 -8.546 1.912 -8.319 2.062 C -8.096 2.215 -7.759 2.288 -7.306 2.288 L -1.354 2.288 C -.904 2.288 -.564 2.215 -.335 2.062 C -.112 1.912 0 1.656 0 1.296 Z " fill="#231f20"/>
<path transform="matrix(1,0,0,-1,186.2085,418.3871)" d="M 0 0 C -.45 0 -.789 .078 -1.012 .226 C -1.235 .375 -1.349 .633 -1.349 .996 L -1.349 2.293 C -1.349 2.532 -1.319 2.722 -1.248 2.862 C -1.182 3.012 -1.083 3.122 -.958 3.197 C -.83 3.273 -.689 3.32 -.523 3.347 C -.36 3.37 -.188 3.38 0 3.38 L 5.105 3.38 L 5.105 26.986 L 8.486 26.986 L 8.486 0 Z " fill="#231f20"/>
<path transform="matrix(1,0,0,-1,0,476.977)" d="M 201.081 85.556 L 204.461 85.556 L 204.461 58.572 L 201.081 58.572 Z " fill="#231f20"/>
<path transform="matrix(1,0,0,-1,246.3486,397.1313)" d="M 0 0 C 0 .276 .056 .532 .163 .78 C .271 1.026 .407 1.237 .583 1.418 C .759 1.598 .97 1.746 1.214 1.851 C 1.458 1.955 1.721 2.012 1.993 2.012 C 2.266 2.012 2.527 1.955 2.767 1.851 C 3.016 1.746 3.23 1.598 3.413 1.418 C 3.592 1.237 3.734 1.026 3.843 .78 C 3.948 .532 4.001 .276 4.001 0 C 4.001 -.273 3.948 -.535 3.843 -.779 C 3.734 -1.021 3.592 -1.234 3.413 -1.408 C 3.23 -1.582 3.016 -1.723 2.767 -1.826 C 2.527 -1.934 2.266 -1.988 1.993 -1.988 C 1.428 -1.988 .955 -1.8 .576 -1.421 C .192 -1.034 0 -.563 0 0 M -5.346 0 C -5.346 .276 -5.295 .532 -5.187 .78 C -5.086 1.026 -4.938 1.237 -4.767 1.418 C -4.591 1.598 -4.382 1.746 -4.141 1.851 C -3.892 1.955 -3.635 2.012 -3.359 2.012 C -3.083 2.012 -2.825 1.955 -2.581 1.851 C -2.335 1.746 -2.122 1.598 -1.941 1.418 C -1.759 1.237 -1.615 1.026 -1.51 .78 C -1.4 .532 -1.352 .276 -1.352 0 C -1.352 -.273 -1.4 -.535 -1.51 -.779 C -1.615 -1.021 -1.759 -1.234 -1.941 -1.408 C -2.122 -1.582 -2.335 -1.723 -2.581 -1.826 C -2.825 -1.934 -3.083 -1.988 -3.359 -1.988 C -3.92 -1.988 -4.396 -1.8 -4.777 -1.421 C -5.158 -1.034 -5.346 -.563 -5.346 0 M -6.962 -21.256 C -8.466 -21.256 -9.762 -21.169 -10.848 -21.01 C -11.937 -20.852 -12.861 -20.616 -13.613 -20.312 C -14.365 -20.014 -14.971 -19.655 -15.433 -19.237 C -15.893 -18.817 -16.251 -18.356 -16.501 -17.856 C -16.754 -17.354 -16.921 -16.814 -17.01 -16.243 C -17.096 -15.666 -17.14 -15.064 -17.14 -14.438 C -17.14 -14.197 -17.133 -13.929 -17.112 -13.612 C -17.095 -13.298 -17.066 -12.977 -17.028 -12.643 C -16.991 -12.313 -16.949 -11.98 -16.908 -11.651 C -16.863 -11.319 -16.817 -11.012 -16.764 -10.741 L -13.572 -11.04 C -13.638 -11.478 -13.701 -11.915 -13.757 -12.353 C -13.827 -12.79 -13.855 -13.229 -13.855 -13.67 C -13.855 -14.42 -13.757 -15.063 -13.572 -15.59 C -13.386 -16.126 -12.98 -16.557 -12.362 -16.897 C -11.742 -17.236 -10.837 -17.482 -9.65 -17.644 C -8.458 -17.798 -6.863 -17.876 -4.861 -17.876 L 10.312 -17.876 L 10.312 -6.74 L 13.689 -6.74 L 13.689 -21.256 Z " fill="#231f20"/>
<path transform="matrix(1,0,0,-1,0,476.977)" d="M 266.424 85.556 L 269.80403 85.556 L 269.80403 58.572 L 266.424 58.572 Z " fill="#231f20"/>
<path transform="matrix(1,0,0,-1,272.8213,423.0014)" d="M 0 0 C 1.346 .176 2.408 .44 3.206 .796 C 4.002 1.15 4.604 1.609 5.018 2.168 C 5.432 2.719 5.704 3.376 5.827 4.132 C 5.952 4.878 6.014 5.729 6.014 6.681 L 6.014 19.13 L 9.39 19.13 L 9.39 7.64 C 9.39 5.737 9.207 4.144 8.847 2.859 C 8.486 1.577 7.93 .52 7.197 -.312 C 6.458 -1.149 5.521 -1.788 4.385 -2.236 C 3.239 -2.688 1.894 -3.018 .339 -3.232 Z " fill="#231f20"/>
<path transform="matrix(1,0,0,-1,288.2207,391.4213)" d="M 0 0 L 3.383 0 L 3.383 -20.147 C 3.383 -20.824 3.413 -21.385 3.464 -21.827 C 3.523 -22.273 3.627 -22.621 3.768 -22.878 C 3.906 -23.138 4.104 -23.318 4.348 -23.424 C 4.59 -23.534 4.906 -23.586 5.298 -23.586 L 6.554 -23.586 C 7.002 -23.586 7.341 -23.659 7.571 -23.812 C 7.794 -23.962 7.906 -24.218 7.906 -24.578 L 7.906 -25.874 C 7.906 -26.113 7.873 -26.302 7.8 -26.447 C 7.736 -26.593 7.64 -26.702 7.512 -26.773 C 7.387 -26.85 7.239 -26.902 7.075 -26.927 C 6.917 -26.953 6.742 -26.966 6.554 -26.966 L 4.788 -26.966 C 3.963 -26.966 3.244 -26.825 2.647 -26.549 C 2.048 -26.276 1.551 -25.896 1.159 -25.407 C .759 -24.915 .469 -24.341 .282 -23.677 C .091 -23.015 0 -22.294 0 -21.517 Z " fill="#231f20"/>
<path transform="matrix(1,0,0,-1,302.0771,417.2953)" d="M 0 0 C 0 -.239 -.031 -.428 -.102 -.573 C -.171 -.719 -.268 -.828 -.392 -.899 C -.519 -.976 -.668 -1.028 -.824 -1.053 C -.987 -1.079 -1.161 -1.092 -1.354 -1.092 L -7.303 -1.092 C -7.494 -1.092 -7.666 -1.079 -7.83 -1.053 C -7.993 -1.028 -8.135 -.976 -8.264 -.899 C -8.39 -.828 -8.484 -.719 -8.552 -.573 C -8.62 -.428 -8.655 -.239 -8.655 0 L -8.655 1.296 C -8.655 1.656 -8.537 1.912 -8.314 2.062 C -8.092 2.215 -7.754 2.288 -7.303 2.288 L -1.354 2.288 C -.901 2.288 -.562 2.215 -.336 2.062 C -.11 1.912 0 1.656 0 1.296 Z " fill="#231f20"/>
<path transform="matrix(1,0,0,-1,308.0342,417.2953)" d="M 0 0 C 0 -.239 -.039 -.428 -.102 -.573 C -.174 -.719 -.271 -.828 -.399 -.899 C -.525 -.976 -.662 -1.028 -.826 -1.053 C -.994 -1.079 -1.165 -1.092 -1.356 -1.092 L -7.306 -1.092 C -7.498 -1.092 -7.668 -1.079 -7.831 -1.053 C -7.995 -1.028 -8.139 -.976 -8.267 -.899 C -8.387 -.828 -8.483 -.719 -8.556 -.573 C -8.62 -.428 -8.657 -.239 -8.657 0 L -8.657 1.296 C -8.657 1.656 -8.545 1.912 -8.319 2.062 C -8.097 2.215 -7.758 2.288 -7.306 2.288 L -1.356 2.288 C -.903 2.288 -.561 2.215 -.338 2.062 C -.112 1.912 0 1.656 0 1.296 Z " fill="#231f20"/>
<path transform="matrix(1,0,0,-1,313.9805,417.2953)" d="M 0 0 C 0 -.239 -.028 -.428 -.099 -.573 C -.165 -.719 -.264 -.828 -.389 -.899 C -.513 -.976 -.662 -1.028 -.822 -1.053 C -.985 -1.079 -1.158 -1.092 -1.353 -1.092 L -7.303 -1.092 C -7.485 -1.092 -7.664 -1.079 -7.828 -1.053 C -7.989 -1.028 -8.134 -.976 -8.26 -.899 C -8.383 -.828 -8.479 -.719 -8.55 -.573 C -8.616 -.428 -8.655 -.239 -8.655 0 L -8.655 1.296 C -8.655 1.656 -8.537 1.912 -8.311 2.062 C -8.086 2.215 -7.75 2.288 -7.303 2.288 L -1.353 2.288 C -.897 2.288 -.557 2.215 -.334 2.062 C -.109 1.912 0 1.656 0 1.296 Z " fill="#231f20"/>
<path transform="matrix(1,0,0,-1,332.6504,397.1313)" d="M 0 0 C 0 .276 .051 .532 .158 .78 C .266 1.026 .407 1.237 .578 1.418 C .754 1.598 .968 1.746 1.207 1.851 C 1.451 1.955 1.715 2.012 1.985 2.012 C 2.266 2.012 2.521 1.955 2.772 1.851 C 3.011 1.746 3.226 1.598 3.408 1.418 C 3.587 1.237 3.729 1.026 3.837 .78 C 3.943 .532 3.996 .276 3.996 0 C 3.996 -.273 3.943 -.535 3.837 -.779 C 3.729 -1.021 3.587 -1.234 3.408 -1.408 C 3.226 -1.582 3.011 -1.723 2.772 -1.826 C 2.521 -1.934 2.266 -1.988 1.985 -1.988 C 1.427 -1.988 .952 -1.8 .567 -1.421 C .188 -1.034 0 -.563 0 0 M -2.705 5.033 C -2.705 5.308 -2.654 5.567 -2.547 5.816 C -2.44 6.056 -2.298 6.27 -2.124 6.451 C -1.952 6.632 -1.737 6.775 -1.493 6.885 C -1.249 6.986 -.991 7.043 -.719 7.043 C -.439 7.043 -.183 6.986 .066 6.885 C .311 6.775 .52 6.632 .703 6.451 C .884 6.27 1.029 6.056 1.137 5.816 C 1.238 5.567 1.291 5.308 1.291 5.033 C 1.291 4.759 1.238 4.499 1.137 4.255 C 1.029 4.015 .884 3.797 .703 3.626 C .52 3.454 .311 3.312 .066 3.203 C -.183 3.098 -.439 3.041 -.719 3.041 C -1.279 3.041 -1.753 3.234 -2.135 3.614 C -2.518 3.997 -2.705 4.473 -2.705 5.033 M -5.354 0 C -5.354 .276 -5.302 .532 -5.191 .78 C -5.088 1.026 -4.947 1.237 -4.774 1.418 C -4.596 1.598 -4.387 1.746 -4.143 1.851 C -3.898 1.955 -3.638 2.012 -3.362 2.012 C -3.088 2.012 -2.828 1.955 -2.586 1.851 C -2.338 1.746 -2.124 1.598 -1.948 1.418 C -1.766 1.237 -1.614 1.026 -1.513 .78 C -1.405 .532 -1.351 .276 -1.351 0 C -1.351 -.273 -1.405 -.535 -1.513 -.779 C -1.614 -1.021 -1.766 -1.234 -1.948 -1.408 C -2.124 -1.582 -2.338 -1.723 -2.586 -1.826 C -2.828 -1.934 -3.088 -1.988 -3.362 -1.988 C -3.928 -1.988 -4.397 -1.8 -4.783 -1.421 C -5.161 -1.034 -5.354 -.563 -5.354 0 M -9.838 -16.806 C -9.191 -17.228 -8.468 -17.51 -7.673 -17.659 C -6.887 -17.804 -6.057 -17.876 -5.191 -17.876 L -3.893 -17.876 C -3.49 -17.876 -3.175 -17.696 -2.944 -17.351 C -2.711 -16.999 -2.597 -16.465 -2.597 -15.75 L -2.597 -8.786 L .783 -8.786 L .783 -16.577 C 1.41 -17.043 2.145 -17.375 2.99 -17.573 C 3.831 -17.773 4.738 -17.876 5.722 -17.876 L 7.018 -17.876 C 7.417 -17.876 7.732 -17.696 7.968 -17.351 C 8.196 -16.999 8.314 -16.465 8.314 -15.75 L 8.314 -6.74 L 11.692 -6.74 L 11.692 -16.447 C 12.286 -16.925 12.98 -17.278 13.795 -17.518 C 14.61 -17.756 15.606 -17.876 16.781 -17.876 L 16.931 -17.876 C 17.384 -17.876 17.723 -17.949 17.953 -18.103 C 18.175 -18.252 18.283 -18.508 18.283 -18.868 L 18.283 -20.164 C 18.283 -20.403 18.248 -20.592 18.182 -20.737 C 18.111 -20.883 18.015 -20.992 17.892 -21.063 C 17.771 -21.14 17.621 -21.192 17.46 -21.217 C 17.296 -21.243 17.122 -21.256 16.931 -21.256 L 16.746 -21.256 C 15.371 -21.256 14.234 -21.069 13.337 -20.696 C 12.446 -20.33 11.692 -19.858 11.081 -19.282 C 10.777 -19.833 10.357 -20.3 9.803 -20.681 C 9.254 -21.063 8.553 -21.256 7.703 -21.256 L 5.678 -21.256 C 4.687 -21.256 3.697 -21.115 2.721 -20.839 C 1.739 -20.566 .866 -20.086 .097 -19.396 C -.209 -19.92 -.633 -20.361 -1.161 -20.72 C -1.699 -21.074 -2.375 -21.256 -3.199 -21.256 L -5.228 -21.256 C -5.706 -21.256 -6.182 -21.222 -6.663 -21.16 C -7.143 -21.096 -7.619 -20.999 -8.077 -20.869 C -8.545 -20.737 -8.992 -20.566 -9.419 -20.354 C -9.854 -20.142 -10.256 -19.878 -10.633 -19.562 C -10.944 -20.042 -11.355 -20.44 -11.868 -20.764 C -12.385 -21.092 -13.033 -21.256 -13.821 -21.256 L -20.022 -21.256 C -20.473 -21.256 -20.806 -21.178 -21.031 -21.03 C -21.26 -20.881 -21.372 -20.623 -21.372 -20.26 L -21.372 -18.963 C -21.372 -18.724 -21.337 -18.534 -21.269 -18.394 C -21.198 -18.244 -21.102 -18.134 -20.98 -18.059 C -20.852 -17.982 -20.71 -17.936 -20.544 -17.909 C -20.381 -17.886 -20.205 -17.876 -20.022 -17.876 L -14.518 -17.876 C -14.117 -17.876 -13.797 -17.696 -13.566 -17.351 C -13.335 -16.999 -13.218 -16.465 -13.218 -15.75 L -13.218 -10.382 L -9.838 -10.382 Z " fill="#231f20"/>
<path transform="matrix(1,0,0,-1,356.9053,417.2953)" d="M 0 0 C 0 -.239 -.034 -.428 -.103 -.573 C -.171 -.719 -.268 -.828 -.394 -.899 C -.519 -.976 -.664 -1.028 -.824 -1.053 C -.987 -1.079 -1.161 -1.092 -1.354 -1.092 L -7.303 -1.092 C -7.489 -1.092 -7.665 -1.079 -7.83 -1.053 C -7.993 -1.028 -8.136 -.976 -8.264 -.899 C -8.391 -.828 -8.481 -.719 -8.549 -.573 C -8.62 -.428 -8.652 -.239 -8.652 0 L -8.652 1.296 C -8.652 1.656 -8.538 1.912 -8.316 2.062 C -8.094 2.215 -7.755 2.288 -7.303 2.288 L -1.354 2.288 C -.901 2.288 -.562 2.215 -.336 2.062 C -.111 1.912 0 1.656 0 1.296 Z " fill="#231f20"/>
<path transform="matrix(1,0,0,-1,362.8613,417.2953)" d="M 0 0 C 0 -.239 -.038 -.428 -.105 -.573 C -.174 -.719 -.271 -.828 -.398 -.899 C -.52 -.976 -.665 -1.028 -.825 -1.053 C -.994 -1.079 -1.168 -1.092 -1.355 -1.092 L -7.306 -1.092 C -7.493 -1.092 -7.668 -1.079 -7.831 -1.053 C -7.994 -1.028 -8.142 -.976 -8.263 -.899 C -8.386 -.828 -8.482 -.719 -8.557 -.573 C -8.62 -.428 -8.656 -.239 -8.656 0 L -8.656 1.296 C -8.656 1.656 -8.544 1.912 -8.319 2.062 C -8.098 2.215 -7.757 2.288 -7.306 2.288 L -1.355 2.288 C -.902 2.288 -.562 2.215 -.337 2.062 C -.112 1.912 0 1.656 0 1.296 Z " fill="#231f20"/>
<path transform="matrix(1,0,0,-1,368.8682,397.1313)" d="M 0 0 C 0 .276 .056 .532 .159 .78 C .269 1.026 .409 1.237 .585 1.418 C .759 1.598 .968 1.746 1.212 1.851 C 1.461 1.955 1.716 2.012 1.993 2.012 C 2.266 2.012 2.529 1.955 2.773 1.851 C 3.013 1.746 3.229 1.598 3.413 1.418 C 3.59 1.237 3.734 1.026 3.84 .78 C 3.941 .532 3.998 .276 3.998 0 C 3.998 -.273 3.941 -.535 3.84 -.779 C 3.734 -1.021 3.59 -1.234 3.413 -1.408 C 3.229 -1.582 3.013 -1.723 2.773 -1.826 C 2.529 -1.934 2.266 -1.988 1.993 -1.988 C 1.426 -1.988 .951 -1.8 .574 -1.421 C .193 -1.034 0 -.563 0 0 M -5.353 0 C -5.353 .276 -5.299 .532 -5.191 .78 C -5.086 1.026 -4.941 1.237 -4.767 1.418 C -4.596 1.598 -4.382 1.746 -4.141 1.851 C -3.898 1.955 -3.639 2.012 -3.362 2.012 C -3.085 2.012 -2.823 1.955 -2.579 1.851 C -2.339 1.746 -2.126 1.598 -1.947 1.418 C -1.764 1.237 -1.618 1.026 -1.51 .78 C -1.404 .532 -1.352 .276 -1.352 0 C -1.352 -.273 -1.404 -.535 -1.51 -.779 C -1.618 -1.021 -1.764 -1.234 -1.947 -1.408 C -2.126 -1.582 -2.339 -1.723 -2.579 -1.826 C -2.823 -1.934 -3.085 -1.988 -3.362 -1.988 C -3.923 -1.988 -4.396 -1.8 -4.776 -1.421 C -5.16 -1.034 -5.353 -.563 -5.353 0 M 1.108 -16.709 C 1.67 -17.098 2.338 -17.386 3.109 -17.584 C 3.878 -17.777 4.794 -17.876 5.858 -17.876 L 6.006 -17.876 C 6.459 -17.876 6.8 -17.949 7.024 -18.103 C 7.251 -18.252 7.36 -18.508 7.36 -18.868 L 7.36 -20.164 C 7.36 -20.403 7.328 -20.592 7.258 -20.737 C 7.189 -20.883 7.091 -20.992 6.963 -21.063 C 6.842 -21.14 6.701 -21.192 6.536 -21.217 C 6.369 -21.243 6.199 -21.256 6.006 -21.256 L 5.824 -21.256 C 4.518 -21.256 3.438 -21.085 2.571 -20.748 C 1.711 -20.409 .973 -19.981 .363 -19.469 C .045 -19.97 -.367 -20.393 -.89 -20.737 C -1.414 -21.081 -2.075 -21.256 -2.871 -21.256 L -7.362 -21.256 C -7.811 -21.256 -8.146 -21.178 -8.371 -21.03 C -8.598 -20.881 -8.712 -20.623 -8.712 -20.26 L -8.712 -18.963 C -8.712 -18.724 -8.677 -18.534 -8.61 -18.394 C -8.54 -18.244 -8.443 -18.134 -8.32 -18.059 C -8.193 -17.982 -8.05 -17.936 -7.885 -17.909 C -7.725 -17.886 -7.545 -17.876 -7.362 -17.876 L -3.564 -17.876 C -3.17 -17.876 -2.852 -17.696 -2.616 -17.351 C -2.384 -16.999 -2.273 -16.465 -2.273 -15.75 L -2.273 -6.761 L 1.108 -6.761 Z " fill="#231f20"/>
<path transform="matrix(1,0,0,-1,385.0713,413.8246)" d="M 0 0 C .664 -.46 1.405 -.778 2.223 -.937 C 3.036 -1.096 3.896 -1.183 4.801 -1.183 L 6.1 -1.183 C 6.503 -1.183 6.817 -1.003 7.048 -.657 C 7.285 -.306 7.399 .229 7.399 .943 L 7.399 7.907 L 10.777 7.907 L 10.777 -.016 C 11.406 -.453 12.132 -.757 12.946 -.924 C 13.757 -1.096 14.639 -1.183 15.582 -1.183 L 18.291 -1.183 L 18.291 9.953 L 21.667 9.953 L 21.667 -4.562 L 15.534 -4.562 C 15.12 -4.562 14.679 -4.536 14.203 -4.484 C 13.724 -4.436 13.242 -4.343 12.759 -4.213 C 12.269 -4.081 11.787 -3.901 11.322 -3.679 C 10.852 -3.454 10.421 -3.165 10.019 -2.813 C 9.702 -3.316 9.284 -3.729 8.759 -4.064 C 8.24 -4.396 7.577 -4.562 6.793 -4.562 L 4.766 -4.562 C 4.275 -4.562 3.787 -4.528 3.303 -4.467 C 2.814 -4.402 2.329 -4.306 1.856 -4.167 C 1.377 -4.026 .924 -3.847 .488 -3.619 C .048 -3.396 -.36 -3.123 -.732 -2.793 C -1.042 -3.296 -1.465 -3.716 -1.99 -4.055 C -2.516 -4.392 -3.183 -4.562 -3.979 -4.562 L -10.177 -4.562 C -10.626 -4.562 -10.964 -4.484 -11.188 -4.337 C -11.413 -4.187 -11.529 -3.93 -11.529 -3.566 L -11.529 -2.27 C -11.529 -2.03 -11.494 -1.841 -11.42 -1.7 C -11.358 -1.551 -11.262 -1.44 -11.136 -1.365 C -11.007 -1.289 -10.867 -1.242 -10.702 -1.216 C -10.538 -1.192 -10.36 -1.183 -10.177 -1.183 L -4.675 -1.183 C -4.275 -1.183 -3.959 -1.003 -3.728 -.657 C -3.488 -.306 -3.376 .229 -3.376 .943 L -3.376 6.312 L 0 6.312 Z " fill="#231f20"/>
<path transform="matrix(1,0,0,-1,412.585,415.0072)" d="M 0 0 L 8.311 0 L 8.311 16.297 L 11.69 16.297 L 11.69 0 L 16.709 0 C 17.106 0 17.424 .18 17.656 .525 C 17.883 .877 17.998 1.411 17.998 2.126 L 17.998 23.606 L 21.378 23.606 L 21.378 1.616 C 21.982 1.079 22.705 .675 23.546 .404 C 24.396 .136 25.437 0 26.675 0 L 26.827 0 C 27.275 0 27.611 -.073 27.838 -.227 C 28.059 -.376 28.177 -.632 28.177 -.992 L 28.177 -2.288 C 28.177 -2.527 28.142 -2.716 28.075 -2.861 C 28.006 -3.007 27.911 -3.116 27.785 -3.188 C 27.656 -3.264 27.518 -3.316 27.352 -3.341 C 27.187 -3.367 27.016 -3.38 26.827 -3.38 L 26.636 -3.38 C 25.925 -3.38 25.272 -3.327 24.696 -3.22 C 24.117 -3.109 23.587 -2.963 23.121 -2.777 C 22.645 -2.589 22.227 -2.369 21.85 -2.113 C 21.477 -1.854 21.129 -1.575 20.823 -1.275 C 20.535 -1.852 20.11 -2.345 19.541 -2.761 C 18.98 -3.171 18.262 -3.38 17.393 -3.38 L 0 -3.38 Z " fill="#231f20"/>
<path transform="matrix(1,0,0,-1,439.4297,418.3871)" d="M 0 0 C -.451 0 -.787 .078 -1.012 .226 C -1.236 .375 -1.353 .633 -1.353 .996 L -1.353 2.293 C -1.353 2.532 -1.317 2.722 -1.245 2.862 C -1.18 3.012 -1.085 3.122 -.961 3.197 C -.83 3.273 -.69 3.32 -.526 3.347 C -.365 3.37 -.186 3.38 0 3.38 L 5.105 3.38 L 5.105 26.986 L 8.487 26.986 L 8.487 0 Z " fill="#231f20"/>
<path transform="matrix(1,0,0,-1,106.9609,340.46919)" d="M 0 0 C -1.184 1.662 -2.614 3.364 -4.297 5.104 C -5.976 6.846 -7.863 8.613 -9.96 10.396 L -17.742 2.772 C -16.372 1.733 -15.014 .636 -13.677 -.525 C -12.342 -1.691 -11.143 -2.83 -10.083 -3.949 C -9.026 -5.071 -8.172 -6.118 -7.519 -7.097 C -6.863 -8.072 -6.538 -8.899 -6.538 -9.588 C -6.538 -10.003 -6.608 -10.412 -6.752 -10.814 C -6.9 -11.22 -7.149 -11.591 -7.501 -11.921 C -7.854 -12.253 -8.344 -12.52 -8.966 -12.726 C -9.588 -12.937 -10.378 -13.042 -11.329 -13.042 L -24.183 -13.042 L -24.183 -21.909 L -11.487 -21.909 C -8.622 -21.909 -6.222 -21.563 -4.277 -20.884 C -2.338 -20.198 -.778 -19.279 .404 -18.131 C 1.586 -16.977 2.428 -15.648 2.927 -14.146 C 3.422 -12.638 3.675 -11.061 3.675 -9.398 C 3.675 -7.949 3.359 -6.432 2.723 -4.854 C 2.089 -3.279 1.184 -1.658 0 0 " fill="#ffffff"/>
<path transform="matrix(1,0,0,-1,367.8545,370.2689)" d="M 0 0 C -.479 .487 -1.035 .871 -1.667 1.15 C -2.298 1.433 -2.979 1.571 -3.705 1.571 C -4.433 1.571 -5.116 1.433 -5.759 1.15 C -6.405 .871 -6.966 .487 -7.438 0 C -7.918 -.487 -8.297 -1.057 -8.578 -1.694 C -8.855 -2.339 -8.998 -3.036 -8.998 -3.784 C -8.998 -4.533 -8.855 -5.225 -8.578 -5.869 C -8.297 -6.509 -7.918 -7.071 -7.438 -7.549 C -6.966 -8.025 -6.405 -8.404 -5.759 -8.684 C -5.116 -8.967 -4.433 -9.104 -3.705 -9.104 C -2.979 -9.104 -2.298 -8.967 -1.667 -8.684 C -1.035 -8.404 -.479 -8.025 0 -7.549 C .473 -7.071 .85 -6.509 1.12 -5.869 C 1.388 -5.225 1.522 -4.533 1.522 -3.784 C 1.522 -3.036 1.388 -2.339 1.12 -1.694 C .85 -1.057 .473 -.487 0 0 " fill="#ffffff"/>
<path transform="matrix(1,0,0,-1,256.4053,345.182)" d="M 0 0 C -.169 -.406 -.469 -.879 -.887 -1.416 C -1.297 -1.957 -1.852 -2.572 -2.531 -3.27 C -3.22 -3.965 -4.081 -4.715 -5.121 -5.526 C -5.847 -4.923 -6.702 -4.018 -7.699 -2.801 C -8.699 -1.587 -9.88 .054 -11.25 2.129 C -10.814 2.314 -10.309 2.479 -9.725 2.615 C -9.144 2.747 -8.562 2.863 -7.982 2.952 C -7.397 3.05 -6.853 3.121 -6.329 3.174 C -5.812 3.225 -5.388 3.253 -5.054 3.253 C -4.453 3.253 -3.837 3.206 -3.202 3.112 C -2.568 3.016 -2.003 2.877 -1.493 2.69 C -.983 2.501 -.564 2.263 -.23 1.975 C .102 1.686 .267 1.351 .267 .979 C .267 .729 .178 .402 0 0 M 103.414 -8.329 L 96.604 -8.329 L 96.538 -8.329 L 84.742 -8.329 L 84.649 -8.329 L 72.885 -8.329 L 72.791 -8.329 L 61.025 -8.329 L 60.931 -8.329 L 49.168 -8.329 L 49.076 -8.329 L 37.307 -8.329 L 37.215 -8.329 L 25.452 -8.329 L 25.361 -8.329 L 13.588 -8.329 L 13.495 -8.329 L 10.103 -8.329 C 9.129 -8.329 8.126 -8.286 7.097 -8.2 C 6.069 -8.121 5.06 -7.993 4.064 -7.828 C 5.247 -6.462 6.221 -5.149 6.973 -3.89 C 7.731 -2.637 8.33 -1.49 8.763 -.45 C 9.2 .585 9.502 1.489 9.667 2.255 C 9.832 3.021 9.913 3.626 9.913 4.06 C 9.913 5.472 9.526 6.675 8.746 7.671 C 7.974 8.665 6.969 9.476 5.746 10.096 C 4.518 10.723 3.153 11.178 1.653 11.467 C .147 11.759 -1.335 11.904 -2.783 11.904 C -4.422 11.904 -5.992 11.79 -7.483 11.559 C -8.977 11.334 -10.373 11.044 -11.668 10.692 C -12.968 10.336 -14.142 9.955 -15.19 9.537 C -16.235 9.12 -17.133 8.739 -17.881 8.386 C -18.315 8.14 -18.73 7.726 -19.122 7.156 C -19.517 6.586 -19.879 5.948 -20.214 5.243 C -20.548 4.535 -20.838 3.82 -21.087 3.099 C -21.333 2.371 -21.52 1.73 -21.642 1.166 L -21.551 1.103 C -21.347 .875 -21.031 .497 -20.604 -.03 C -20.175 -.564 -19.673 -1.209 -19.093 -1.973 C -18.494 -2.746 -17.806 -3.674 -17.04 -4.765 C -16.269 -5.854 -15.355 -6.939 -14.298 -8.013 C -15.023 -8.121 -15.793 -8.197 -16.605 -8.25 C -17.412 -8.301 -18.241 -8.329 -19.093 -8.329 L -24.632 -8.329 L -24.697 -8.329 L -36.486 -8.329 L -36.584 -8.329 L -48.347 -8.329 L -48.444 -8.329 L -60.209 -8.329 L -60.3 -8.329 L -72.068 -8.329 L -72.157 -8.329 L -83.927 -8.329 L -84.017 -8.329 L -95.783 -8.329 L -95.876 -8.329 L -107.641 -8.329 L -107.737 -8.329 L -119.535 -8.329 L -119.595 -8.329 L -123.111 -8.329 C -124.317 -8.329 -125.178 -8 -125.696 -7.347 C -126.216 -6.691 -126.474 -5.64 -126.474 -4.187 L -126.474 27.622 L -137.68 27.622 L -137.68 -5.838 C -137.68 -7.663 -137.463 -9.282 -137.024 -10.691 C -136.591 -12.105 -135.909 -13.293 -134.978 -14.258 C -134.049 -15.224 -132.856 -15.953 -131.41 -16.453 C -129.962 -16.948 -128.23 -17.196 -126.228 -17.196 L -119.595 -17.196 L -119.535 -17.196 L -107.737 -17.196 L -107.641 -17.196 L -95.876 -17.196 L -95.783 -17.196 L -84.017 -17.196 L -83.927 -17.196 L -72.157 -17.196 L -72.068 -17.196 L -60.3 -17.196 L -60.209 -17.196 L -48.444 -17.196 L -48.347 -17.196 L -36.584 -17.196 L -36.486 -17.196 L -24.697 -17.196 L -24.632 -17.196 L -19.501 -17.196 C -16.824 -17.196 -14.289 -16.897 -11.903 -16.294 C -9.516 -15.694 -7.397 -14.978 -5.553 -14.146 C -4.845 -14.458 -4 -14.797 -3.017 -15.157 C -2.036 -15.52 -.945 -15.853 .255 -16.153 C 1.445 -16.457 2.729 -16.706 4.114 -16.903 C 5.491 -17.097 6.923 -17.196 8.423 -17.196 L 13.495 -17.196 L 13.588 -17.196 L 25.361 -17.196 L 25.452 -17.196 L 37.215 -17.196 L 37.307 -17.196 L 49.076 -17.196 L 49.168 -17.196 L 60.931 -17.196 L 61.025 -17.196 L 72.791 -17.196 L 72.885 -17.196 L 84.649 -17.196 L 84.742 -17.196 L 96.538 -17.196 L 96.604 -17.196 L 114.683 -17.196 L 114.683 10.192 L 103.414 10.192 Z " fill="#ffffff"/>
<path transform="matrix(1,0,0,-1,389.9844,304.7367)" d="M 0 0 C -.374 0 -.759 .039 -1.152 .11 C -1.546 .183 -1.905 .297 -2.228 .451 C -2.551 .606 -2.813 .803 -3.02 1.046 C -3.229 1.28 -3.332 1.579 -3.332 1.931 C -3.332 2.322 -3.118 2.667 -2.694 2.957 C -2.268 3.25 -1.681 3.391 -.933 3.391 C -.458 3.391 .03 3.36 .527 3.301 C 1.03 3.236 1.513 3.123 1.992 2.957 L 2.46 7.846 C 1.854 7.928 1.327 8.002 .872 8.063 C .413 8.125 .006 8.165 -.356 8.188 C -.724 8.207 -1.047 8.222 -1.34 8.235 C -1.63 8.246 -1.907 8.25 -2.182 8.25 C -3.031 8.25 -3.868 8.128 -4.687 7.89 C -5.505 7.652 -6.246 7.289 -6.908 6.802 C -7.571 6.315 -8.104 5.695 -8.513 4.947 C -8.916 4.202 -9.12 3.322 -9.12 2.307 C -9.12 1.601 -8.883 .831 -8.401 0 L -10.49 0 L -10.49 -4.943 L 2.711 -4.943 L 2.711 0 Z " fill="#ffffff"/>
<path transform="matrix(1,0,0,-1,0,476.977)" d="M 380.427 114.599 L 391.629 114.599 L 391.629 159.41699 L 380.427 159.41699 Z " fill="#ffffff"/>
</g>
</g>
</g>
</g>
</svg>
