<?xml version="1.0" encoding="UTF-8"?>
<svg xmlns="http://www.w3.org/2000/svg" xmlns:xlink="http://www.w3.org/1999/xlink" width="120" height="120" viewBox="0 0 1000 1000" version="1.1">
<defs>
<clipPath id="clip1">
  <path d="M 142.113281 164.9375 L 857.886719 164.9375 L 857.886719 835.0625 L 142.113281 835.0625 Z M 142.113281 164.9375 "/>
</clipPath>
<filter id="alpha" filterUnits="objectBoundingBox" x="0%" y="0%" width="100%" height="100%">
  <feColorMatrix type="matrix" in="SourceGraphic" values="0 0 0 0 1 0 0 0 0 1 0 0 0 0 1 0 0 0 1 0"/>
</filter>
<mask id="mask0">
  <g filter="url(#alpha)">
<rect x="0" y="0" width="1000" height="1000" style="fill:rgb(0%,0%,0%);fill-opacity:0.5;stroke:none;"/>
  </g>
</mask>
<clipPath id="clip3">
  <path d="M 50 0.9375 L 715.886719 0.9375 L 715.886719 310 L 50 310 Z M 50 0.9375 "/>
</clipPath>
<clipPath id="clip4">
  <path d="M 0.113281 333 L 88 333 L 88 671.0625 L 0.113281 671.0625 Z M 0.113281 333 "/>
</clipPath>
<clipPath id="clip5">
  <path d="M 407 434 L 495 434 L 495 671.0625 L 407 671.0625 Z M 407 434 "/>
</clipPath>
<clipPath id="clip2">
  <rect width="716" height="672"/>
</clipPath>
<g id="surface4" clip-path="url(#clip2)">
<g clip-path="url(#clip3)" clip-rule="nonzero">
<path style=" stroke:none;fill-rule:nonzero;fill:rgb(0%,0%,0%);fill-opacity:1;" d="M 85.234375 258.339844 C 73.378906 248.480469 61.945313 238.980469 50.097656 229.136719 C 51.523438 227.207031 52.648438 225.519531 53.9375 223.96875 C 95.667969 173.707031 137.300781 123.359375 179.195313 73.234375 C 219.890625 24.542969 294.03125 29.039063 328.296875 82.492188 C 361.527344 134.324219 394.136719 186.558594 427.039063 238.605469 C 439.785156 258.769531 459.480469 267.890625 479.992188 261.003906 C 488.640625 258.105469 498.003906 252.605469 503.40625 245.515625 C 553.652344 179.566406 603.105469 113.015625 653.296875 45.953125 C 646.328125 40.535156 639.542969 35.257813 631.605469 29.085938 C 660.089844 19.574219 687.429688 10.441406 715.886719 0.9375 C 714.816406 30.722656 713.78125 59.363281 712.6875 89.703125 C 704.769531 83.957031 698.015625 79.054688 690.539063 73.628906 C 684.859375 81.15625 679.261719 88.519531 673.722656 95.929688 C 630.449219 153.789063 587.246094 211.699219 543.90625 269.507813 C 501.875 325.570313 425.054688 322.242188 387.671875 262.898438 C 355.566406 211.929688 323.390625 161 291.183594 110.09375 C 271.847656 79.527344 236.183594 77.207031 212.925781 105.09375 C 172.285156 153.835938 131.773438 202.6875 91.199219 251.484375 C 89.367188 253.691406 87.433594 255.816406 85.234375 258.339844 "/>
</g>
<path style=" stroke:none;fill-rule:nonzero;fill:rgb(0%,0%,0%);fill-opacity:1;" d="M 203.664063 670.789063 L 290.886719 670.789063 L 290.886719 201.257813 L 203.664063 201.257813 Z M 203.664063 670.789063 "/>
<path style=" stroke:none;fill-rule:nonzero;fill:rgb(0%,0%,0%);fill-opacity:1;" d="M 610.488281 670.878906 L 697.816406 670.878906 L 697.816406 253.902344 L 610.488281 253.902344 Z M 610.488281 670.878906 "/>
<g clip-path="url(#clip4)" clip-rule="nonzero">
<path style=" stroke:none;fill-rule:nonzero;fill:rgb(0%,0%,0%);fill-opacity:1;" d="M 0.113281 671.03125 L 87.082031 671.03125 L 87.082031 333.90625 L 0.113281 333.90625 Z M 0.113281 671.03125 "/>
</g>
<g clip-path="url(#clip5)" clip-rule="nonzero">
<path style=" stroke:none;fill-rule:nonzero;fill:rgb(0%,0%,0%);fill-opacity:1;" d="M 407.089844 671.0625 L 494.210938 671.0625 L 494.210938 434.371094 L 407.089844 434.371094 Z M 407.089844 671.0625 "/>
</g>
</g>
</defs>
<g id="surface1">
<g clip-path="url(#clip1)" clip-rule="nonzero">
<use xlink:href="#surface4" transform="matrix(1,0,0,1,142,164)" mask="url(#mask0)"/>
</g>
</g>
</svg>
